<svg xmlns="http://www.w3.org/2000/svg" xmlns:xlink="http://www.w3.org/1999/xlink" width="465.693" height="457.664" viewBox="0 0 465.693 457.664">
  <defs>
    <linearGradient id="linear-gradient" x1="-6.458" y1="0.806" x2="-6.458" y2="-0.203" gradientUnits="objectBoundingBox">
      <stop offset="0.04" stop-color="#8e93b9"/>
      <stop offset="0.26" stop-color="#636a9f"/>
      <stop offset="1" stop-color="#bec1d7"/>
    </linearGradient>
    <linearGradient id="linear-gradient-2" x1="-0.726" y1="0.807" x2="-0.726" y2="-0.203" gradientUnits="objectBoundingBox">
      <stop offset="0" stop-color="#e36049"/>
      <stop offset="1" stop-color="#fff"/>
    </linearGradient>
    <linearGradient id="linear-gradient-3" x1="-0.773" y1="0.793" x2="-0.773" y2="-0.216" gradientUnits="objectBoundingBox">
      <stop offset="0.01" stop-color="#636a9f"/>
      <stop offset="1" stop-color="#bec1d7"/>
    </linearGradient>
    <linearGradient id="linear-gradient-4" x1="-0.233" y1="0.59" x2="-0.223" y2="-0.474" gradientUnits="objectBoundingBox">
      <stop offset="0" stop-color="#9ab5ff"/>
      <stop offset="1" stop-color="#cdffff"/>
    </linearGradient>
    <linearGradient id="linear-gradient-5" x1="-41.257" y1="-0.282" x2="-41.257" y2="-1.29" gradientUnits="objectBoundingBox">
      <stop offset="0.01" stop-color="#838bff"/>
      <stop offset="1" stop-color="#8693ff"/>
    </linearGradient>
    <linearGradient id="linear-gradient-6" x1="-45.323" y1="-0.283" x2="-45.323" y2="-1.29" gradientUnits="objectBoundingBox">
      <stop offset="0" stop-color="#f2e0ff"/>
      <stop offset="1" stop-color="#fff"/>
    </linearGradient>
    <linearGradient id="linear-gradient-7" x1="-45.564" y1="-0.292" x2="-45.564" y2="-1.303" gradientUnits="objectBoundingBox">
      <stop offset="0" stop-color="#b0c2ff"/>
      <stop offset="1" stop-color="#caffff"/>
    </linearGradient>
    <linearGradient id="linear-gradient-8" x1="-95.39" y1="-1.482" x2="-95.39" y2="-2.482" xlink:href="#linear-gradient-5"/>
    <linearGradient id="linear-gradient-9" x1="-67.21" y1="-1.497" x2="-67.21" y2="-2.503" xlink:href="#linear-gradient-6"/>
    <linearGradient id="linear-gradient-10" x1="-66.834" y1="-1.522" x2="-66.834" y2="-2.535" xlink:href="#linear-gradient-7"/>
    <linearGradient id="linear-gradient-11" x1="-17.851" y1="0.634" x2="-17.851" y2="-0.374" gradientUnits="objectBoundingBox">
      <stop offset="0" stop-color="#ca90ff"/>
      <stop offset="1"/>
    </linearGradient>
    <linearGradient id="linear-gradient-12" x1="0.609" y1="1.002" x2="0.628" y2="0.008" gradientUnits="objectBoundingBox">
      <stop offset="0" stop-color="#fff"/>
      <stop offset="1" stop-color="#fff"/>
    </linearGradient>
    <linearGradient id="linear-gradient-13" x1="0.451" y1="1" x2="0.451" gradientUnits="objectBoundingBox">
      <stop offset="0" stop-color="#7a97ef"/>
      <stop offset="0.38" stop-color="#a3aef6"/>
      <stop offset="0.79" stop-color="#c8c2fd"/>
      <stop offset="1" stop-color="#d6caff"/>
    </linearGradient>
    <linearGradient id="linear-gradient-14" x1="5.16" y1="1" x2="5.16" y2="0.001" gradientUnits="objectBoundingBox">
      <stop offset="0" stop-color="#f7fcff"/>
      <stop offset="0.09" stop-color="#e9f7ff"/>
      <stop offset="0.27" stop-color="#c4e9fe"/>
      <stop offset="0.52" stop-color="#87d2fd"/>
      <stop offset="0.82" stop-color="#35b4fb"/>
      <stop offset="1" stop-color="#00a0fa"/>
    </linearGradient>
    <linearGradient id="linear-gradient-15" x1="6.582" y1="1" x2="6.582" gradientUnits="objectBoundingBox">
      <stop offset="0"/>
      <stop offset="1" stop-color="#fff"/>
    </linearGradient>
    <linearGradient id="linear-gradient-16" x1="26.108" y1="1" x2="26.108" y2="0.001" xlink:href="#linear-gradient-15"/>
    <linearGradient id="linear-gradient-17" x1="3.567" y1="1" x2="3.567" gradientUnits="objectBoundingBox">
      <stop offset="0" stop-color="#4dbcfb"/>
      <stop offset="1" stop-color="#9cdafd"/>
    </linearGradient>
    <linearGradient id="linear-gradient-18" x1="4.267" y1="1" x2="4.267" gradientUnits="objectBoundingBox">
      <stop offset="0" stop-color="#26aefb"/>
      <stop offset="1" stop-color="#69c7fc"/>
    </linearGradient>
    <linearGradient id="linear-gradient-19" x1="13.179" y1="1" x2="13.179" y2="0.001" gradientUnits="objectBoundingBox">
      <stop offset="0" stop-color="#ade1fd"/>
      <stop offset="0.13" stop-color="#9fdcfd"/>
      <stop offset="0.37" stop-color="#7acefc"/>
      <stop offset="0.69" stop-color="#3eb7fb"/>
      <stop offset="1" stop-color="#00a0fa"/>
    </linearGradient>
    <linearGradient id="linear-gradient-20" x1="15.94" y1="1" x2="15.94" y2="0" xlink:href="#linear-gradient-15"/>
    <linearGradient id="linear-gradient-21" x1="-0.131" y1="1.11" x2="-0.131" y2="0.076" gradientUnits="objectBoundingBox">
      <stop offset="0" stop-color="#61c6ff"/>
      <stop offset="1" stop-color="#a6dfff"/>
    </linearGradient>
    <linearGradient id="linear-gradient-22" x1="-0.086" y1="1.105" x2="-0.086" y2="0.071" gradientUnits="objectBoundingBox">
      <stop offset="0" stop-color="#40baff"/>
      <stop offset="1" stop-color="#7acfff"/>
    </linearGradient>
    <linearGradient id="linear-gradient-23" x1="-0.669" y1="0.7" x2="0.337" y2="0.7" gradientUnits="objectBoundingBox">
      <stop offset="0" stop-color="#40baff"/>
      <stop offset="1" stop-color="#45bcff"/>
    </linearGradient>
    <linearGradient id="linear-gradient-24" x1="-16.613" y1="1.282" x2="-16.613" y2="0.285" gradientUnits="objectBoundingBox">
      <stop offset="0" stop-color="#8fd7ff"/>
      <stop offset="1" stop-color="#a6dfff"/>
    </linearGradient>
    <linearGradient id="linear-gradient-25" x1="-1.816" y1="0.952" x2="-0.817" y2="0.952" xlink:href="#linear-gradient-23"/>
    <linearGradient id="linear-gradient-26" x1="-0.666" y1="1.171" x2="-0.662" y2="-0.171" xlink:href="#linear-gradient-24"/>
    <linearGradient id="linear-gradient-27" x1="-2.781" y1="1.612" x2="-2.781" y2="0.574" gradientUnits="objectBoundingBox">
      <stop offset="0" stop-color="#47bdff"/>
      <stop offset="0.26" stop-color="#39b8ff"/>
      <stop offset="0.76" stop-color="#14aaff"/>
      <stop offset="1" stop-color="#00a3ff"/>
    </linearGradient>
    <linearGradient id="linear-gradient-28" x1="-2.893" y1="1.61" x2="-2.893" y2="0.573" gradientUnits="objectBoundingBox">
      <stop offset="0" stop-color="#f7fcff"/>
      <stop offset="0.11" stop-color="#e9f7ff"/>
      <stop offset="0.31" stop-color="#c4e9ff"/>
      <stop offset="0.58" stop-color="#87d4ff"/>
      <stop offset="0.91" stop-color="#35b6ff"/>
      <stop offset="1" stop-color="#1faeff"/>
    </linearGradient>
    <linearGradient id="linear-gradient-29" x1="-3.404" y1="2.789" x2="-3.404" y2="1.731" xlink:href="#linear-gradient-15"/>
    <linearGradient id="linear-gradient-30" x1="123.786" y1="3.412" x2="123.786" y2="2.379" gradientUnits="objectBoundingBox">
      <stop offset="0" stop-color="#fcfeff"/>
      <stop offset="1" stop-color="#61c6ff"/>
    </linearGradient>
    <linearGradient id="linear-gradient-31" x1="29.564" y1="1.114" x2="29.564" y2="0.114" gradientUnits="objectBoundingBox">
      <stop offset="0" stop-color="#0da8ff"/>
      <stop offset="0.77" stop-color="#00a3ff"/>
      <stop offset="0.98" stop-color="#2bb3ff"/>
    </linearGradient>
    <linearGradient id="linear-gradient-32" x1="33.302" y1="2.168" x2="33.302" y2="1.315" gradientUnits="objectBoundingBox">
      <stop offset="0" stop-color="#ade2ff"/>
      <stop offset="1" stop-color="#6bcaff"/>
    </linearGradient>
    <linearGradient id="linear-gradient-33" x1="15.053" y1="1.342" x2="15.053" y2="0.37" gradientUnits="objectBoundingBox">
      <stop offset="0" stop-color="#78ceff"/>
      <stop offset="1" stop-color="#33b5ff"/>
    </linearGradient>
    <linearGradient id="linear-gradient-34" x1="14.9" y1="1.177" x2="14.9" y2="0.149" xlink:href="#linear-gradient-15"/>
  </defs>
  <g id="img1" transform="translate(0.02 -0.032)">
    <g id="Layer_2" data-name="Layer 2" transform="translate(-0.02 0.032)">
      <g id="Layer_1" data-name="Layer 1">
        <path id="Path_489" data-name="Path 489" d="M307.383,23.145S306.416,5.774,285.2,7.02L220.37,452.172s22.618,9.235,31.267-9.323Z" transform="translate(102.69 3.194)" fill="url(#linear-gradient)"/>
        <path id="Path_490" data-name="Path 490" d="M356.469,6.936,121.8,29.73a11.17,11.17,0,0,0-9.982,9.66L68.75,367.567a11.14,11.14,0,0,0,7.491,12.005l218.134,73.762a11.155,11.155,0,0,0,14.659-9.015L368.577,19.586a11.155,11.155,0,0,0-12.108-12.65Z" transform="translate(32.012 3.161)" fill="url(#linear-gradient-2)"/>
        <path id="Path_491" data-name="Path 491" d="M112.282,46.325l-39.959,304.9a10.452,10.452,0,0,0,7.329,11.2l210.966,69.643a11.345,11.345,0,0,0,3.782.572,10.51,10.51,0,0,0,10.261-8.883L360.085,29.2a10.51,10.51,0,0,0-7.579-11.4,11.038,11.038,0,0,0-4.192-.425L121.868,37.369A10.437,10.437,0,0,0,112.282,46.325Z" transform="translate(33.688 8.026)" fill="url(#linear-gradient-3)"/>
        <path id="Path_492" data-name="Path 492" d="M114.617,46.645l-39.945,304.9A10.452,10.452,0,0,0,82,362.742l210.952,69.643.352.1a10.51,10.51,0,0,0,10.261-8.883L358.99,29.054a10.51,10.51,0,0,0-7.579-11.4h-.777L124.2,37.718a10.481,10.481,0,0,0-9.587,8.927Z" transform="translate(34.783 8.176)" fill="#def3ff"/>
        <path id="Path_493" data-name="Path 493" d="M282.739,154.63s-26.957,151.526-75.726,218.061l-25.872-8.619Z" transform="translate(84.414 71.989)" fill="#1455d7" opacity="0.5"/>
        <path id="Path_494" data-name="Path 494" d="M6.73,290.734s98.608-16.975,240.284,73.733c0,0,63.457-20.874,111.185-181.766Z" transform="translate(3.164 85.066)" fill="url(#linear-gradient-4)"/>
        <path id="Path_495" data-name="Path 495" d="M267.553,114.072h0a3.313,3.313,0,0,0,3.723-2.844l8.8-65.026a3.313,3.313,0,0,0-2.844-3.723h0a3.313,3.313,0,0,0-3.723,2.844l-8.8,65.011a3.327,3.327,0,0,0,2.844,3.738Z" transform="translate(123.332 19.729)" fill="url(#linear-gradient-5)"/>
        <path id="Path_496" data-name="Path 496" d="M268.028,114.179h0a2.536,2.536,0,0,0,2.932-2.184l8.971-66.535a2.551,2.551,0,0,0-2.184-2.932h0a2.551,2.551,0,0,0-2.888,2.243l-8.971,66.55A2.536,2.536,0,0,0,268.028,114.179Z" transform="translate(123.883 19.754)" fill="url(#linear-gradient-6)"/>
        <path id="Path_497" data-name="Path 497" d="M277.709,42.535a2.565,2.565,0,0,1,2.1,1.8,2.609,2.609,0,0,0-1.275-.572,2.536,2.536,0,0,0-2.932,2.184l-8.971,66.535a2.594,2.594,0,0,0,.088,1.07,2.536,2.536,0,0,1-.909-2.287l9.088-66.579A2.551,2.551,0,0,1,277.709,42.535Z" transform="translate(123.847 19.761)" fill="url(#linear-gradient-7)"/>
        <rect id="Rectangle_160" data-name="Rectangle 160" width="6.616" height="36.84" rx="2.107" transform="translate(387.751 182.393) rotate(-172.519)" fill="url(#linear-gradient-8)"/>
        <path id="Path_498" data-name="Path 498" d="M263.783,134.817h0a2.536,2.536,0,0,0,2.858-2.184l4.251-31.5a2.565,2.565,0,0,0-2.184-2.932h0a2.565,2.565,0,0,0-2.932,2.184L261.54,131.9a2.536,2.536,0,0,0,2.243,2.917Z" transform="translate(121.855 45.687)" fill="url(#linear-gradient-9)"/>
        <path id="Path_499" data-name="Path 499" d="M268.733,98.234a3.151,3.151,0,0,1,2.184,1.07,4.164,4.164,0,0,0-1.29-.381c-1.393-.191-2.609.235-2.7.953l-4.588,33.979a.879.879,0,0,0,.161.557c-.689-.322-1.114-.792-1.041-1.246l4.573-33.993C266.139,98.469,267.341,98.044,268.733,98.234Z" transform="translate(121.83 45.696)" fill="url(#linear-gradient-10)"/>
        <path id="Path_500" data-name="Path 500" d="M242.842,377.657s33.715-245.194,32.249-245.487-32.718,226.182-32.718,226.182S239.441,377.775,242.842,377.657Z" transform="translate(112.393 61.526)" fill="url(#linear-gradient-11)"/>
        <path id="Path_501" data-name="Path 501" d="M6.73,368.263c28.57-4.515,59.529-1.261,89.417,5.863C175.406,392.948,247.2,438.815,247.2,438.815c51.305-27.412,93.317-121.241,110.98-178.586l4.573-32.439L391.181,26.249v-.117A8.8,8.8,0,0,0,381.7,16.31L154.283,38.181a8.693,8.693,0,0,0-7.754,7.329,1.892,1.892,0,0,0,0,.279c-.967,7.329-2.4,18.382-4.1,31.4l-1.466,11.36-.454,3.371c-1.114,8.531-2.316,17.59-3.5,26.737l-2.932,21.988c-.308,2.433-.645,4.867-.953,7.329l-7.447,56.8c-1.275,9.675-2.1,15.89-2.213,16.755C82.148,313.44,6.73,368.263,6.73,368.263Z" transform="translate(3.164 7.537)" fill="url(#linear-gradient-12)"/>
        <path id="Path_502" data-name="Path 502" d="M248.591,41.964l-3.357,20.713a6.772,6.772,0,0,1-6.362,5.673L143.3,72.615a6.743,6.743,0,0,1-6.963-7.769l2.8-18.338a6.714,6.714,0,0,1,6.2-5.717l96.087-6.655a6.758,6.758,0,0,1,7.168,7.828Z" transform="translate(63.505 15.847)" fill="#1455d7" opacity="0.2"/>
        <g id="Group_321" data-name="Group 321" transform="translate(159.518 145.539)" opacity="0.2">
          <rect id="Rectangle_161" data-name="Rectangle 161" width="1.261" height="195.516" transform="translate(0 1.26) rotate(-87.8)" fill="#1455d7"/>
        </g>
        <g id="Group_322" data-name="Group 322" transform="translate(134.333 208.548)" opacity="0.2">
          <rect id="Rectangle_162" data-name="Rectangle 162" width="1.261" height="211.348" transform="translate(0 1.256) rotate(-85.08)" fill="#1455d7"/>
        </g>
        <g id="Group_323" data-name="Group 323" transform="translate(109.528 264.377)" opacity="0.2">
          <path id="Path_503" data-name="Path 503" d="M287.836,216.8l.352-1.217c-1.466-.425-149.312-42.114-213.488-34.2l.147,1.261C138.773,174.791,286.355,216.378,287.836,216.8Z" transform="translate(-74.7 -180.388)" fill="#1455d7"/>
        </g>
        <path id="Path_504" data-name="Path 504" d="M225.77,174.241a93.978,93.978,0,0,1-7.74,18.646,4.1,4.1,0,0,1-4.661,1.862c-3.459-.953-9.338-2.58-14.072-3.943a4.148,4.148,0,0,1-2.756-5.424c1.583-4.295,4.031-10.965,5.556-15.392a4.134,4.134,0,0,1,4.4-2.77l15.758,1.6a4.148,4.148,0,0,1,3.518,5.424Z" transform="translate(91.47 77.841)" fill="#1455d7" opacity="0.2"/>
        <path id="Path_505" data-name="Path 505" d="M198.721,249.307a94.856,94.856,0,0,1-11.184,16.8,4.134,4.134,0,0,1-4.94.938c-3.21-1.612-8.663-4.4-13.046-6.6a4.148,4.148,0,0,1-1.656-5.863c2.389-3.9,6.069-9.983,8.414-14.028a4.163,4.163,0,0,1,4.823-1.876l15.157,4.676a4.163,4.163,0,0,1,2.433,5.951Z" transform="translate(77.959 111.058)" fill="#1455d7" opacity="0.2"/>
        <path id="Path_506" data-name="Path 506" d="M109.451,45.452l-4.163,31.677-1.466,11.36-.44,3.371L99.865,118.6l-2.932,21.988-.967,7.329-7.447,56.8c-.777,5.863-1.363,10.408-1.744,13.31l-.454,3.445L111.8,54.936a12.724,12.724,0,0,1,11.595-10.759L354.1,26.249v-.117a8.8,8.8,0,0,0-9.484-9.821L117.206,38.181a8.678,8.678,0,0,0-7.754,7.271Z" transform="translate(40.242 7.537)" fill="#1455d7" opacity="0.2"/>
        <g id="Group_324" data-name="Group 324" transform="translate(139.225 349.898)" opacity="0.2">
          <path id="Path_507" data-name="Path 507" d="M182.472,305.69c-33.8-19.921-62.211-30.167-80.08-35.254A10.261,10.261,0,0,1,97.35,253.99l9.777-11.61a10.261,10.261,0,0,1,8.8-3.606c38.889,3.914,75.55,20.287,93.947,29.7a10.261,10.261,0,0,1,3.415,15.421A190.3,190.3,0,0,1,194.7,304.3a10.261,10.261,0,0,1-12.284,1.466ZM108.094,243.2l-9.763,11.61a8.956,8.956,0,0,0,4.4,14.409c17.957,5.087,46.526,15.348,80.373,35.386a9.044,9.044,0,0,0,10.789-1.217h0a189.2,189.2,0,0,0,18.47-20.288,9.1,9.1,0,0,0,1.671-7.52,8.942,8.942,0,0,0-4.661-6c-18.323-9.381-54.823-25.682-93.507-29.552h-.894a9.015,9.015,0,0,0-6.875,3.166Z" transform="translate(-94.959 -238.73)" fill="#1455d7"/>
        </g>
        <path id="Path_508" data-name="Path 508" d="M144.151,42.07s.425-19.408,2.448-34.609A6.567,6.567,0,0,0,138.948.132c-7.329,1.29-17.282,3.152-23.7,4.691a6.582,6.582,0,0,0-4.911,5.087c-1.583,7.916-4.661,25.653-2.8,35.884Z" transform="translate(49.854 -0.032)" fill="#e36049"/>
        <g id="Group_325" data-name="Group 325" transform="translate(80.845 278.336)" opacity="0.2">
          <path id="Path_509" data-name="Path 509" d="M68.307,273.126c-7.329-3.885-11.888-11.727-12.944-22.149s1.539-21.9,7.241-32.645,13.882-19.364,23.014-24.26,18.309-5.5,25.609-1.671c14.966,7.96,17.59,32.542,5.7,54.794-9.308,17.5-24.788,28.438-38.244,28.438a21.987,21.987,0,0,1-10.378-2.507Zm17.913-77.94c-8.912,4.779-16.9,13.193-22.486,23.732s-8.121,21.871-7.095,31.926S62,268.333,68.908,272.012c14.351,7.622,35.4-3.767,46.907-25.4s9.176-45.442-5.174-53.079a20.668,20.668,0,0,0-9.836-2.389,30.915,30.915,0,0,0-14.585,4.046Z" transform="translate(-55.133 -189.911)" fill="#1455d7"/>
          <path id="Path_510" data-name="Path 510" d="M69.192,261.434C62.8,258.033,58.8,251.349,57.92,242.6A45.442,45.442,0,0,1,63.5,217.165h0c9.572-18.03,27.089-26.825,39.871-20.038s15.274,26.239,5.688,44.254a45.442,45.442,0,0,1-17.957,18.866,26.812,26.812,0,0,1-12.636,3.459,19.7,19.7,0,0,1-9.279-2.272Zm2.1-40.106h0A36.646,36.646,0,0,0,66.7,241.7c.572,5.7,2.932,9.924,6.611,11.888s8.5,1.539,13.559-1.173a36.646,36.646,0,0,0,14.321-15.2c7.007-13.193,6.083-27.954-2.023-32.249a10.847,10.847,0,0,0-5.116-1.217C86.416,203.738,76.991,210.686,71.289,221.328Z" transform="translate(-53.893 -187.615)" fill="#1455d7"/>
          <path id="Path_511" data-name="Path 511" d="M79.131,242.4h.205a.616.616,0,0,0,.381-.806l-10.994-31.12a.645.645,0,0,0-.821-.381.63.63,0,0,0-.381.806L78.5,241.974a.63.63,0,0,0,.63.425Z" transform="translate(-49.378 -180.527)" fill="#1455d7"/>
          <path id="Path_512" data-name="Path 512" d="M80.639,237.214a.63.63,0,0,0,.616-.469c.66-2.668,1.583-6.289,2.316-9.059a9.381,9.381,0,0,0,1.143-3.342c.161-.938.264-1.466-.381-1.642s-.748-.147-1.979,4.544a1.466,1.466,0,0,1-.821.6c-.733.132-1.73-.762-2.668-2.389-1.129-1.935.923-6.333,2.565-9.865,1.759-3.782,3.152-6.758,1.656-7.945a1.744,1.744,0,0,0-1.378-.381c-1.6.22-3.181,2.492-4.72,4.691a11.844,11.844,0,0,1-2.184,2.668.632.632,0,0,0,.1,1.261c.865,0,1.656-1.129,3.122-3.2,1.173-1.7,2.8-4.016,3.855-4.178a.528.528,0,0,1,.41.117c.718.572-.865,3.958-2.008,6.435-1.964,4.192-3.972,8.531-2.521,11.038,1.612,2.77,3.064,3.152,3.987,2.932h.132c-.484,1.862-1.085,4.266-1.862,7.329a.63.63,0,0,0,.469.762Z" transform="translate(-46.239 -181.835)" fill="#1455d7"/>
          <path id="Path_513" data-name="Path 513" d="M75.915,211.114a.645.645,0,0,0,.63-.6l.41-7.4a.63.63,0,1,0-1.261,0l-.425,7.329a.63.63,0,0,0,.6.66Z" transform="translate(-45.752 -184.056)" fill="#1455d7"/>
        </g>
        <g id="Group_326" data-name="Group 326" transform="translate(119.831 216.02)" opacity="0.2">
          <path id="Path_514" data-name="Path 514" d="M278.434,224.666c-99.678-27-165.833-31.325-189.638-31.926a7.329,7.329,0,0,1-6.332-10.525l15.362-30.783a7.329,7.329,0,0,1,7.212-4l189.184,18.162a7.329,7.329,0,0,1,6.377,8.956c-3.65,15.172-9.924,34.975-13.354,45.442a7.329,7.329,0,0,1-6.9,5A7.094,7.094,0,0,1,278.434,224.666ZM98.969,151.93,83.592,182.772a6.01,6.01,0,0,0,5.233,8.692c23.85.616,90.121,4.94,189.931,31.985a6.01,6.01,0,0,0,7.329-3.928h0c3.415-10.437,9.689-30.2,13.325-45.324a6,6,0,0,0-5.277-7.4l-189.1-18.162a3.736,3.736,0,0,0-.572,0,6.039,6.039,0,0,0-5.5,3.3Z" transform="translate(-81.728 -147.399)" fill="#1455d7"/>
        </g>
        <g id="Group_327" data-name="Group 327" transform="translate(144.946 148.717)" opacity="0.2">
          <path id="Path_515" data-name="Path 515" d="M288.717,173.524,105.866,158.5a7.608,7.608,0,0,1-6.934-8.619l5.629-41.777a7.622,7.622,0,0,1,7.872-6.611l184.258,7.549a7.637,7.637,0,0,1,7.241,8.693l-6.978,49.253a7.622,7.622,0,0,1-7.549,6.552Zm-182.9-65.319-5.644,41.85a6.347,6.347,0,0,0,5.79,7.183l182.851,15.01a6.362,6.362,0,0,0,6.831-5.438l7.021-49.311a6.362,6.362,0,0,0-6.039-7.329l-184.244-7.549h-.264a6.333,6.333,0,0,0-6.3,5.585Z" transform="translate(-98.862 -101.485)" fill="#1455d7"/>
        </g>
        <g id="Group_328" data-name="Group 328" transform="translate(153.538 86.651)" opacity="0.2">
          <path id="Path_516" data-name="Path 516" d="M294.225,122.1,113.47,116.233a9.044,9.044,0,0,1-8.663-10.261L109.1,74.119a9.03,9.03,0,0,1,8.6-7.813l181.942-7.153a9.015,9.015,0,0,1,9.323,10.129l-5.526,44.885a9,9,0,0,1-8.956,7.93Zm13.486-52.9a7.769,7.769,0,0,0-8.018-8.8L117.706,67.611a7.74,7.74,0,0,0-7.329,6.728l-4.295,31.838a7.769,7.769,0,0,0,7.447,8.8l180.755,5.863a7.74,7.74,0,0,0,7.96-6.816Z" transform="translate(-104.723 -59.145)" fill="#1455d7"/>
        </g>
        <path id="Path_517" data-name="Path 517" d="M238.215,79.153l-1.466,12.592a6.318,6.318,0,0,1-6.406,5.57l-11.228-.264a6.289,6.289,0,0,1-6.1-7.109l1.554-11.9a6.288,6.288,0,0,1,6-5.468l11.126-.44a6.3,6.3,0,0,1,6.523,7.021Z" transform="translate(99.239 33.554)" fill="#e36049"/>
        <path id="Path_518" data-name="Path 518" d="M222.361,87.314a1.041,1.041,0,0,1-.762-.323l-4.09-4.5a1.011,1.011,0,0,1,.073-1.466,1.041,1.041,0,0,1,1.466,0l3.137,3.547,4.573-7.622a1.026,1.026,0,0,1,1.759,1.055l-5.292,8.8a1.041,1.041,0,0,1-.762.484Z" transform="translate(101.227 35.581)" fill="#fff"/>
        <path id="Path_519" data-name="Path 519" d="M232.818,126.463,231.484,137.9a6.919,6.919,0,0,1-7.535,6.1l-10.261-.967a6.934,6.934,0,0,1-6.23-7.8l1.466-10.877a6.919,6.919,0,0,1,7.139-6.01l10.188.4a6.934,6.934,0,0,1,6.567,7.725Z" transform="translate(96.648 55.081)" fill="#e36049"/>
        <path id="Path_520" data-name="Path 520" d="M217.051,133.829a1,1,0,0,1-.762-.337l-4.09-4.486a1.026,1.026,0,0,1,1.466-1.378l3.152,3.474,4.573-7.622a1.026,1.026,0,0,1,1.759,1.055l-5.277,8.8a1.085,1.085,0,0,1-.777.5Z" transform="translate(98.812 57.257)" fill="#fff"/>
        <path id="Path_521" data-name="Path 521" d="M176.418,252.147a2.7,2.7,0,0,0,.6,0l5.907-1.466a2.7,2.7,0,0,0-1.217-5.248l-5.863,1.378a2.683,2.683,0,0,0,.6,5.306Z" transform="translate(80.957 114.271)" fill="#fff"/>
        <path id="Path_522" data-name="Path 522" d="M184.32,249.729a2.771,2.771,0,0,0,.689-.088l1-.264a2.683,2.683,0,0,0-1.363-5.189l-1,.249a2.683,2.683,0,0,0,.674,5.292Z" transform="translate(84.621 113.669)" fill="#fff"/>
        <path id="Path_523" data-name="Path 523" d="M174.556,250.877l-.909-3.357-1.847,2.609Z" transform="translate(80.063 115.263)" fill="#fff"/>
        <path id="Path_524" data-name="Path 524" d="M66.59,305.431l1.686,1.466c79.259,18.822,151.057,64.688,151.057,64.688C270.638,344.173,312.649,250.344,330.313,193l4.573-32.439C320.785,172.712,185.1,287.357,66.59,305.431Z" transform="translate(31.05 74.752)" opacity="0.2" fill="url(#linear-gradient-13)"/>
        <path id="Path_525" data-name="Path 525" d="M19.736,83.879a6.1,6.1,0,0,0,6.025-5.292l4.222-32.249a15.861,15.861,0,0,1,31.443,4.09l-2.932,22.3a6.083,6.083,0,1,0,12.065,1.554l2.93-22.208a28.019,28.019,0,1,0-55.556-7.329L13.7,76.99a6.069,6.069,0,0,0,5.233,6.816A5.1,5.1,0,0,0,19.736,83.879Z" transform="translate(6.385 9.449)" fill="url(#linear-gradient-14)"/>
        <g id="Group_329" data-name="Group 329" transform="translate(27.044 30.189)" opacity="0.6">
          <path id="Path_526" data-name="Path 526" d="M23.15,27.243a26.224,26.224,0,0,1,13.486-4.4A26.532,26.532,0,0,1,64.121,52.792L61.409,73.945a5.541,5.541,0,0,1-.953,2.492A5.776,5.776,0,0,0,64.3,71.731l2.712-21.123A26.547,26.547,0,0,0,23.15,27.243Z" transform="translate(-16.231 -20.627)" fill="url(#linear-gradient-15)"/>
          <path id="Path_527" data-name="Path 527" d="M18.43,76.1a5.761,5.761,0,0,0,3.841-4.691l4.016-30.534a14.908,14.908,0,0,1,4.4-8.8,14.878,14.878,0,0,0-7.241,10.95l-4.06,30.592A5.482,5.482,0,0,1,18.43,76.1Z" transform="translate(-18.43 -15.291)" fill="url(#linear-gradient-16)"/>
        </g>
        <path id="Path_528" data-name="Path 528" d="M10.54,139.918l68.089,4.251a9.645,9.645,0,0,0,7.432-5.409l7.578-68s-4.06-15.773-18.221-15.538C68.368,55.338,8.722,122.914.66,134.8,2.478,138.731,10.54,139.918,10.54,139.918Z" transform="translate(0.336 25.677)" fill="url(#linear-gradient-17)"/>
        <path id="Path_529" data-name="Path 529" d="M71.675,135.477l8.018-74.231A5.585,5.585,0,0,0,74.02,55.06L15.474,56.2a8.986,8.986,0,0,0-8.8,8.092L.009,131.2a5.57,5.57,0,0,0,5.262,6.127L65.8,140.461a5.585,5.585,0,0,0,5.878-4.984Z" transform="translate(0.02 25.603)" fill="url(#linear-gradient-18)"/>
        <path id="Path_530" data-name="Path 530" d="M22.454,95.875l-.938,11.038a5.2,5.2,0,0,0,4.735,5.585l1.261.1a5,5,0,0,0,3.078-.689,5.218,5.218,0,0,0,2.521-4.016l.967-10.715a11.61,11.61,0,0,0,6.875-9.6l.836-9.895a11.55,11.55,0,1,0-23.016-1.964l-.848,9.924a11.551,11.551,0,0,0,4.53,10.232Z" transform="translate(8.358 30.304)" opacity="0.32" fill="url(#linear-gradient-19)"/>
        <path id="Path_531" data-name="Path 531" d="M28.676,98.465,27.753,109.5a6.391,6.391,0,0,0,0,1.187,5.218,5.218,0,0,0,2.521-4.016L31.2,95.958a11.61,11.61,0,0,0,6.875-9.6l.836-9.895a11.536,11.536,0,0,0-2.932-8.693,11.536,11.536,0,0,0-11.023,10.6l-.85,9.909a11.536,11.536,0,0,0,4.573,10.188Z" transform="translate(11.238 31.525)" fill="#a1dcfd"/>
        <path id="Path_532" data-name="Path 532" d="M67.3,69.41s-6.714-5.644-12.269-7.681A7.74,7.74,0,0,0,53.77,56.1S63.064,58.064,67.3,69.41Z" transform="translate(25.078 26.088)" opacity="0.5" fill="url(#linear-gradient-20)"/>
        <path id="Path_533" data-name="Path 533" d="M291.832,146.636l-124.349-3.9a11.844,11.844,0,0,0-12.474,10.422l-23.1,72.736c-.762,6.464,18.411,11.185,24.92,12.005L292.99,255.168a11.859,11.859,0,0,0,13.193-9.924l12.562-80.432C314.348,150.623,302.577,146.695,291.832,146.636Z" transform="translate(61.468 66.439)" fill="url(#linear-gradient-21)"/>
        <path id="Path_534" data-name="Path 534" d="M292.273,148.071l-140.195-8.414A11.83,11.83,0,0,0,139.6,150.079l-8.575,71.578A11.829,11.829,0,0,0,141.29,234.85l136.149,17.283a11.844,11.844,0,0,0,13.193-9.924l12.562-80.432a11.844,11.844,0,0,0-10.921-13.706Z" transform="translate(61.027 65.003)" fill="url(#linear-gradient-22)"/>
        <path id="Path_535" data-name="Path 535" d="M288.316,146.609s-2.375,10.349-7.93,42.246L137.86,176.835S141,139.573,149.352,138.4Z" transform="translate(64.252 64.428)" fill="url(#linear-gradient-23)"/>
        <path id="Path_536" data-name="Path 536" d="M235.09,186.231l4.251,1.026,6.728-40.941,3.577.762L243.02,144S236.424,172.745,235.09,186.231Z" transform="translate(109.547 67.037)" fill="url(#linear-gradient-24)"/>
        <path id="Path_537" data-name="Path 537" d="M250.172,152.947a3.8,3.8,0,0,0,3.782-3.518,16.579,16.579,0,0,0-15.494-17.693l-44.372-2.727A16.608,16.608,0,0,0,176.85,142.2l-.41,2.038a3.8,3.8,0,0,0,7.432,1.466l.41-2.038a9,9,0,0,1,9.338-7.183l44.372,2.785a8.971,8.971,0,0,1,8.4,9.587,3.782,3.782,0,0,0,3.518,4.046Z" transform="translate(82.211 60.04)" fill="url(#linear-gradient-25)"/>
        <path id="Path_538" data-name="Path 538" d="M137.86,164.61l2.433,1.07,144.343,11.976-4.251-1.026Z" transform="translate(64.252 76.639)" fill="url(#linear-gradient-26)"/>
        <path id="Path_539" data-name="Path 539" d="M199.772,166.739l-1.935,14.7-22.721-2.8-.4-.674,2.8-12.988,21.079.586Z" transform="translate(81.424 76.811)" fill="url(#linear-gradient-27)"/>
        <path id="Path_540" data-name="Path 540" d="M198.6,165.939,196.151,180.6,174.72,178.34l1.642-14.16Z" transform="translate(81.424 76.438)" fill="url(#linear-gradient-28)"/>
        <path id="Path_541" data-name="Path 541" d="M197.155,166.236l-21.094-1.686s-.484,4.911,8.8,5.409C193.564,170.428,197.155,166.236,197.155,166.236Z" transform="translate(82.046 76.611)" opacity="0.5" fill="url(#linear-gradient-29)"/>
        <path id="Path_542" data-name="Path 542" d="M249.133,264.83h0A2.243,2.243,0,0,1,247.8,261.9l2.932-8.135a2.243,2.243,0,0,1,2.932-1.334h0A2.243,2.243,0,0,1,255,255.361l-2.932,8.135a2.243,2.243,0,0,1-2.932,1.334Z" transform="translate(115.396 117.478)" fill="url(#linear-gradient-30)"/>
        <rect id="Rectangle_163" data-name="Rectangle 163" width="30.006" height="186.267" rx="9.14" transform="translate(437.494 136.378) rotate(19.99)" fill="url(#linear-gradient-31)"/>
        <path id="Path_543" data-name="Path 543" d="M245.338,240.13s-2.331,16.2,6.538,26.136a33.715,33.715,0,0,0,21.2-15.89Z" transform="translate(114.193 111.82)" fill="url(#linear-gradient-32)"/>
        <path id="Path_544" data-name="Path 544" d="M278.083,272.815a48.113,48.113,0,0,1-6.3.484,37.246,37.246,0,0,1-12.812-1.832l-.235-.088c-8.619-3.181-15.523-11.243-15.523-11.243a207.96,207.96,0,0,0,20.068-66.477l8.531-.909c1.95,4.4,11.185,8.634,12.328,9.147s10.935,3.034,15.289.923h0l5.951,6.171a207.785,207.785,0,0,0-27.294,63.823Z" transform="translate(113.33 89.748)" fill="url(#linear-gradient-33)"/>
        <path id="Path_545" data-name="Path 545" d="M314.1,100.78c-.337.923-2.858.865-5.629-.132s-4.735-2.58-4.4-3.518,2.858-.865,5.629.147S314.436,99.856,314.1,100.78Z" transform="translate(141.666 44.895)" fill="#6bcaff"/>
        <path id="Path_546" data-name="Path 546" d="M299.059,208.977c-23.234,3.415-42.129-15.318-42.129-15.318l8.531-.909c1.95,4.4,11.185,8.634,12.328,9.147s10.935,3.034,15.289.923h0Z" transform="translate(119.722 89.748)" fill="#3bb8ff" opacity="0.58"/>
        <path id="Path_547" data-name="Path 547" d="M310.632,100.57,265,236.514a24.392,24.392,0,0,0,9.425,5.863L325.2,107.591S312.919,104.132,310.632,100.57Z" transform="translate(123.481 46.805)" opacity="0.17" fill="url(#linear-gradient-34)"/>
        <path id="Path_548" data-name="Path 548" d="M296.79,101.907s4-4.647,8.722-5.087c0,0,1.085,2.14,6.479,4.632a34.421,34.421,0,0,1-1.261,6.934,35.635,35.635,0,0,1-13.94-6.479Z" transform="translate(138.291 45.058)" fill="#fff" opacity="0.31"/>
      </g>
    </g>
  </g>
</svg>
