<svg id="img2" xmlns="http://www.w3.org/2000/svg" xmlns:xlink="http://www.w3.org/1999/xlink" width="444.447" height="400.111" viewBox="0 0 444.447 400.111">
  <defs>
    <clipPath id="clip-path">
      <path id="Path_772" data-name="Path 772" d="M227.5,163.511c-46.812,26.939-123.655,26.939-170.908-.442s-47.7-71.1-.442-98.482c46.812-26.939,123.655-26.939,170.908.442S274.307,136.571,227.5,163.511Z" transform="translate(-20.925 -44.437)"/>
    </clipPath>
    <linearGradient id="linear-gradient" x1="-0.235" y1="0.794" x2="1.389" y2="0.153" gradientUnits="objectBoundingBox">
      <stop offset="0" stop-color="#e36049"/>
      <stop offset="1" stop-color="#f2b4a9"/>
    </linearGradient>
    <linearGradient id="linear-gradient-2" x1="-1.541" y1="0.363" x2="2.017" y2="0.6" gradientUnits="objectBoundingBox">
      <stop offset="0" stop-color="#f4c3ba"/>
      <stop offset="1" stop-color="#fffefc"/>
    </linearGradient>
    <linearGradient id="linear-gradient-3" x1="-1.234" y1="0.351" x2="1.217" y2="0.559" xlink:href="#linear-gradient-2"/>
    <linearGradient id="linear-gradient-4" x1="-2.34" y1="0.309" x2="1.033" y2="0.541" gradientUnits="objectBoundingBox">
      <stop offset="0" stop-color="#ccccd0"/>
      <stop offset="1" stop-color="#fffefc"/>
    </linearGradient>
    <linearGradient id="linear-gradient-5" x1="-0.33" y1="1.052" x2="1.294" y2="0.133" gradientUnits="objectBoundingBox">
      <stop offset="0" stop-color="#f3b9af"/>
      <stop offset="0.018" stop-color="#f1b0a5"/>
      <stop offset="0.058" stop-color="#efa294"/>
      <stop offset="0.109" stop-color="#ed9788"/>
      <stop offset="0.18" stop-color="#ec9181"/>
      <stop offset="0.377" stop-color="#eb9080"/>
      <stop offset="0.48" stop-color="#f3bcb3"/>
      <stop offset="0.518" stop-color="#f1ada1"/>
      <stop offset="0.573" stop-color="#ee9e90"/>
      <stop offset="0.641" stop-color="#ec9485"/>
      <stop offset="0.736" stop-color="#eb8e7e"/>
      <stop offset="1" stop-color="#eb8d7c"/>
    </linearGradient>
  </defs>
  <path id="Path_590" data-name="Path 590" d="M77,75.949l56.086,32.239,22.964-13.249L99.964,62.7Z" transform="translate(263.05 214.198)" fill="#e2e6f2"/>
  <path id="Path_591" data-name="Path 591" d="M0,93.549l55.645,32.239,22.964-13.249L22.964,80.3Z" transform="translate(0 274.324)" fill="#e2e6f2"/>
  <path id="Path_592" data-name="Path 592" d="M26.6,43.357,52.656,58.372,78.712,43.357,52.656,27.9Z" transform="translate(90.872 95.313)" fill="#e2e6f2"/>
  <path id="Path_593" data-name="Path 593" d="M19.6,47.457,45.656,62.472l26.5-15.457L46.1,32Z" transform="translate(66.958 109.32)" fill="#e2e6f2"/>
  <path id="Path_594" data-name="Path 594" d="M12.5,51.115,38.556,66.572l26.5-15.457L38.556,36.1Z" transform="translate(42.703 123.326)" fill="#e2e6f2"/>
  <path id="Path_595" data-name="Path 595" d="M4.5,55.715,30.556,70.73,56.612,55.715,30.556,40.7Z" transform="translate(15.373 139.041)" fill="#e2e6f2"/>
  <path id="Path_596" data-name="Path 596" d="M27.7,71.495l18.107,10.6V28.657L27.7,18.5Z" transform="translate(94.63 63.2)" fill="#3e3f61"/>
  <path id="Path_597" data-name="Path 597" d="M13.4,97.559l18.548,10.6V32.2L13.4,21.6Z" transform="translate(45.778 73.791)" fill="#e36049"/>
  <path id="Path_598" data-name="Path 598" d="M5.6,102.059l18.548,10.6V36.7L5.6,26.1Z" transform="translate(19.131 89.164)" fill="#a7b2de"/>
  <path id="Path_599" data-name="Path 599" d="M20.5,83.894l18.548,10.6V30.9L20.5,20.3Z" transform="translate(70.033 69.35)" fill="#cfd5eb"/>
  <path id="Path_600" data-name="Path 600" d="M31.8,82.094l18.548-10.6V18.5L31.8,28.657Z" transform="translate(108.636 63.2)" fill="#525798"/>
  <path id="Path_601" data-name="Path 601" d="M17.6,108.158l18.107-10.6V21.6L17.6,32.2Z" transform="translate(60.126 73.791)" fill="#a84736"/>
  <path id="Path_602" data-name="Path 602" d="M9.8,112.658l18.107-10.6V26.1L9.8,36.7Z" transform="translate(33.479 89.164)" fill="#bfc5e5"/>
  <path id="Path_603" data-name="Path 603" d="M24.7,94.493l18.107-10.6V20.3L24.7,30.9Z" transform="translate(84.381 69.35)" fill="#e2e6f2"/>
  <path id="Path_604" data-name="Path 604" d="M27.7,26.7,45.807,37.3,64.355,26.7,45.807,16.1Z" transform="translate(94.63 55.001)" fill="#6f79bc"/>
  <path id="Path_605" data-name="Path 605" d="M13.4,29.9,31.948,40.056l18.107-10.6L31.948,19.3Z" transform="translate(45.778 65.933)" fill="#f1afa4"/>
  <path id="Path_606" data-name="Path 606" d="M5.6,34.3,24.148,44.9,42.255,34.3,24.148,23.7Z" transform="translate(19.131 80.965)" fill="#cfd5eb"/>
  <path id="Path_607" data-name="Path 607" d="M20.6,28.6,38.707,38.756l18.107-10.6L38.707,18Z" transform="translate(70.374 61.492)" fill="#f6f7fc"/>
  <path id="Path_608" data-name="Path 608" d="M38.875,27.271A8.994,8.994,0,0,0,34.9,34.337c0,2.65,1.767,3.533,3.975,2.208a8.994,8.994,0,0,0,3.975-7.066C42.849,26.829,41.083,25.946,38.875,27.271Z" transform="translate(119.227 91.084)" fill="#fff"/>
  <path id="Path_609" data-name="Path 609" d="M34.875,23.171A8.994,8.994,0,0,0,30.9,30.237c0,2.65,1.766,3.533,3.975,2.208a8.994,8.994,0,0,0,3.975-7.066C38.849,22.729,37.083,21.846,34.875,23.171Z" transform="translate(105.562 77.078)" fill="#fff"/>
  <path id="Path_610" data-name="Path 610" d="M31.875,29.071A8.993,8.993,0,0,0,27.9,36.137c0,2.65,1.766,3.533,3.975,2.208a8.994,8.994,0,0,0,3.975-7.066C36.291,28.629,34.083,27.746,31.875,29.071Z" transform="translate(95.313 97.233)" fill="#fff"/>
  <path id="Path_611" data-name="Path 611" d="M27.775,26.671A8.993,8.993,0,0,0,23.8,33.737c0,2.65,1.766,3.533,3.975,2.208a8.994,8.994,0,0,0,3.975-7.066C31.749,26.229,29.983,25.346,27.775,26.671Z" transform="translate(81.306 89.035)" fill="#fff"/>
  <path id="Path_612" data-name="Path 612" d="M24.675,29.871A8.994,8.994,0,0,0,20.7,36.937c0,2.65,1.766,3.533,3.975,2.208a8.993,8.993,0,0,0,3.975-7.066C28.649,29.429,26.883,28.546,24.675,29.871Z" transform="translate(70.716 99.966)" fill="#fff"/>
  <path id="Path_613" data-name="Path 613" d="M20.675,28.171A8.994,8.994,0,0,0,16.7,35.237c0,2.65,1.766,3.533,3.975,2.208a8.994,8.994,0,0,0,3.975-7.066C24.649,27.729,22.883,26.846,20.675,28.171Z" transform="translate(57.051 94.159)" fill="#fff"/>
  <path id="Path_614" data-name="Path 614" d="M16.875,32.409A8.994,8.994,0,0,0,12.9,39.475c0,2.65,1.766,3.533,3.975,2.208a8.993,8.993,0,0,0,3.975-7.066C20.849,32.409,19.083,31.084,16.875,32.409Z" transform="translate(44.069 108.911)" fill="#fff"/>
  <path id="Path_615" data-name="Path 615" d="M12.875,30.171A8.994,8.994,0,0,0,8.9,37.237c0,2.65,1.766,3.533,3.975,2.208a8.994,8.994,0,0,0,3.975-7.066C16.849,29.729,15.083,28.846,12.875,30.171Z" transform="translate(30.405 100.991)" fill="#fff"/>
  <path id="Path_616" data-name="Path 616" d="M94.05,50,75.944,39.4,62.695,53.972,44.147,46.023,27.365,66.337,10.142,55.3,9.7,56.18,27.807,67.662,44.588,47.348,62.695,55.3,75.944,40.723,94.492,51.764,107.74,25.708l16.782,17.223.883-.442L107.3,23.5Z" transform="translate(33.137 80.282)" fill="#fff"/>
  <path id="Path_617" data-name="Path 617" d="M59.4,118.7,73.532,127.1l68.452-39.746L127.852,79.4Z" transform="translate(202.924 271.249)" fill="#e2e6f2"/>
  <path id="Path_618" data-name="Path 618" d="M238.785,111.9,105.856,35.056a1.343,1.343,0,0,0-1.767,0L60.369,60.229c-1.325.883-1.325,2.65,0,3.091l132.487,76.4a2.815,2.815,0,0,0,2.65,0l43.279-24.731A1.7,1.7,0,0,0,238.785,111.9Z" transform="translate(202.839 118.629)" fill="#e2e6f2"/>
  <path id="Path_619" data-name="Path 619" d="M239.476,107.307,106.106,33.556a1.343,1.343,0,0,0-1.767,0L60.619,56.079c-1.325.883-.883,5.3.442,5.741l132.045,76.4a2.816,2.816,0,0,0,2.65,0l43.279-24.731C240.36,112.607,240.36,108.191,239.476,107.307Z" transform="translate(204.355 113.504)" fill="#4c5086"/>
  <path id="Path_620" data-name="Path 620" d="M79.149,37.528c-4.416-2.65-4.858-3.091-6.183-2.208-.883.883-3.091,1.767-2.208,2.208,4.416,2.65,4.858,3.091,6.183,2.208C77.824,39.294,80.032,38.411,79.149,37.528Z" transform="translate(241.028 119.248)" fill="#a7b2de"/>
  <path id="Path_621" data-name="Path 621" d="M79.652,38.861c-5.3-3.091-5.3-3.533-6.624-2.65-2.65,1.767-4.858,2.65-3.975,3.533,5.3,3.091,5.3,3.533,6.624,2.65C78.769,40.185,80.977,39.3,79.652,38.861Z" transform="translate(235.226 122.332)" fill="#a7b2de"/>
  <path id="Path_622" data-name="Path 622" d="M80.127,38.935c-3.533-1.767-3.975-2.65-5.3-1.767-2.65,1.767-4.858,2.65-3.975,3.533,3.533,1.767,3.975,2.65,5.3,1.767C78.8,40.259,81.01,39.376,80.127,38.935Z" transform="translate(241.375 125.791)" fill="#a7b2de"/>
  <path id="Path_623" data-name="Path 623" d="M81.527,39.735c-3.533-1.767-3.975-2.65-5.3-1.767-2.65,1.767-4.858,2.65-3.975,3.533,3.533,1.767,3.975,2.65,5.3,1.767C80.2,41.059,82.41,40.176,81.527,39.735Z" transform="translate(246.158 128.524)" fill="#a7b2de"/>
  <path id="Path_624" data-name="Path 624" d="M82.827,40.535c-3.533-1.767-3.975-2.65-5.3-1.767-2.65,1.767-4.858,2.65-3.975,3.533,3.533,1.767,3.975,2.65,5.3,1.767C81.944,41.859,84.152,40.976,82.827,40.535Z" transform="translate(250.599 131.257)" fill="#a7b2de"/>
  <path id="Path_625" data-name="Path 625" d="M84.227,41.335c-3.533-1.767-3.975-2.65-5.3-1.767-2.65,1.767-4.858,2.65-3.975,3.533,3.533,1.767,3.975,2.65,5.3,1.767C83.344,42.659,85.552,41.776,84.227,41.335Z" transform="translate(255.381 133.99)" fill="#a7b2de"/>
  <path id="Path_626" data-name="Path 626" d="M82,40.085c-.883-.442-2.208.442-5.3,2.65-1.325.883,0,1.325,3.091,3.091.883.442,2.208-.442,5.3-2.65C86.853,42.294,85.528,41.852,82,40.085Z" transform="translate(260.263 136.564)" fill="#a7b2de"/>
  <path id="Path_627" data-name="Path 627" d="M87.027,42.935c-3.533-1.766-3.975-2.65-5.3-1.766-2.65,1.766-4.858,2.65-3.975,3.533,3.533,1.767,3.975,2.65,5.3,1.767C86.144,44.259,87.91,43.376,87.027,42.935Z" transform="translate(264.947 139.456)" fill="#a7b2de"/>
  <path id="Path_628" data-name="Path 628" d="M88.427,43.735c-3.533-1.767-3.975-2.65-5.3-1.767-2.65,1.767-4.858,2.65-3.975,3.533,3.533,1.767,3.975,2.65,5.3,1.767C87.1,45.059,89.31,44.176,88.427,43.735Z" transform="translate(269.73 142.189)" fill="#a7b2de"/>
  <path id="Path_629" data-name="Path 629" d="M89.827,44.535c-3.533-1.767-3.975-2.65-5.3-1.767-2.65,1.767-4.858,2.65-3.975,3.533,3.533,1.766,3.975,2.65,5.3,1.766C88.5,45.859,90.71,44.976,89.827,44.535Z" transform="translate(274.512 144.922)" fill="#a7b2de"/>
  <path id="Path_630" data-name="Path 630" d="M91.227,45.335c-3.533-1.766-3.975-2.65-5.3-1.766-2.65,1.766-4.858,2.65-3.975,3.533,3.533,1.767,3.975,2.65,5.3,1.767C89.9,46.659,92.11,45.776,91.227,45.335Z" transform="translate(279.295 147.655)" fill="#a7b2de"/>
  <path id="Path_631" data-name="Path 631" d="M92.627,46.135c-3.533-1.767-3.975-2.65-5.3-1.767-2.65,1.767-4.858,2.65-3.975,3.533,3.533,1.767,3.975,2.65,5.3,1.767C91.3,47.459,93.51,46.576,92.627,46.135Z" transform="translate(284.078 150.388)" fill="#a7b2de"/>
  <path id="Path_632" data-name="Path 632" d="M94.027,46.935c-3.533-1.767-3.975-2.65-5.3-1.767-2.65,1.767-4.858,2.65-3.975,3.533,3.533,1.766,3.975,2.65,5.3,1.766C92.7,48.259,94.91,47.376,94.027,46.935Z" transform="translate(288.861 153.121)" fill="#a7b2de"/>
  <path id="Path_633" data-name="Path 633" d="M95.327,47.635c-3.533-1.767-3.975-2.65-5.3-1.767-2.65,1.767-4.858,2.65-3.975,3.533,3.533,1.767,3.975,2.65,5.3,1.767C94.444,49.4,96.652,48.518,95.327,47.635Z" transform="translate(293.302 155.512)" fill="#a7b2de"/>
  <path id="Path_634" data-name="Path 634" d="M96.727,48.435c-3.533-1.767-3.975-2.65-5.3-1.767-2.65,1.767-4.858,2.65-3.975,3.533,3.533,1.766,3.975,2.65,5.3,1.766C95.844,50.2,98.052,49.318,96.727,48.435Z" transform="translate(298.084 158.245)" fill="#a7b2de"/>
  <path id="Path_635" data-name="Path 635" d="M98.127,49.235c-3.533-1.766-3.975-2.65-5.3-1.766-2.65,1.766-4.858,2.65-3.975,3.533,3.533,1.767,3.975,2.65,5.3,1.767C97.244,51,99.01,50.118,98.127,49.235Z" transform="translate(302.867 160.978)" fill="#a7b2de"/>
  <path id="Path_636" data-name="Path 636" d="M99.527,50.035c-3.091-1.767-3.975-2.65-5.3-1.767-2.65,1.767-4.858,2.65-3.975,3.533,3.533,1.767,3.975,2.65,5.3,1.767C98.644,51.8,100.41,50.918,99.527,50.035Z" transform="translate(307.65 163.711)" fill="#a7b2de"/>
  <path id="Path_637" data-name="Path 637" d="M98.952,51.861c-5.3-3.091-5.3-3.533-6.624-2.65-2.65,1.767-4.858,2.65-3.975,3.533,5.3,3.091,5.3,3.533,6.624,2.65C97.627,53.627,99.835,52.3,98.952,51.861Z" transform="translate(301.159 166.743)" fill="#a7b2de"/>
  <path id="Path_638" data-name="Path 638" d="M96.127,50.135c-3.533-1.767-3.975-2.65-5.3-1.767-2.65,1.767-4.858,2.65-3.975,3.533,3.533,1.767,3.975,2.65,5.3,1.767C94.8,51.9,97.01,50.576,96.127,50.135Z" transform="translate(296.035 164.053)" fill="#a7b2de"/>
  <path id="Path_639" data-name="Path 639" d="M94.727,49.335c-3.533-1.767-3.975-2.65-5.3-1.767-2.65,1.767-4.858,2.65-3.975,3.533,3.533,1.767,3.975,2.65,5.3,1.767C93.844,51.1,95.61,49.776,94.727,49.335Z" transform="translate(291.252 161.32)" fill="#a7b2de"/>
  <path id="Path_640" data-name="Path 640" d="M93.327,48.535c-3.533-1.767-3.975-2.65-5.3-1.767-2.65,1.767-4.858,2.65-3.975,3.533,3.533,1.767,3.975,2.65,5.3,1.767C92.444,50.3,94.652,48.976,93.327,48.535Z" transform="translate(286.469 158.587)" fill="#a7b2de"/>
  <path id="Path_641" data-name="Path 641" d="M88.3,45.785c-.883-.442-2.208.442-5.3,2.65-1.325.883,0,1.325,3.091,3.091.883.442,2.208-.442,5.3-2.65C93.153,47.552,91.828,47.552,88.3,45.785Z" transform="translate(281.785 156.037)" fill="#a7b2de"/>
  <path id="Path_642" data-name="Path 642" d="M87,44.985c-.883-.442-2.208.442-5.3,2.65-1.325.883,0,1.325,3.091,3.091.883.442,2.208-.442,5.3-2.65C91.411,46.752,90.087,46.752,87,44.985Z" transform="translate(277.344 153.304)" fill="#a7b2de"/>
  <path id="Path_643" data-name="Path 643" d="M89.227,46.135c-3.533-1.767-3.975-2.65-5.3-1.767-2.65,1.767-4.858,2.65-3.975,3.533,3.533,1.767,3.975,2.65,5.3,1.767C87.9,47.9,90.11,46.576,89.227,46.135Z" transform="translate(272.463 150.388)" fill="#a7b2de"/>
  <path id="Path_644" data-name="Path 644" d="M87.827,45.335c-3.533-1.766-3.975-2.65-5.3-1.766-2.65,1.766-4.858,2.65-3.975,3.533,3.533,1.767,3.975,2.65,5.3,1.767C86.5,47.1,88.71,45.776,87.827,45.335Z" transform="translate(267.68 147.655)" fill="#a7b2de"/>
  <path id="Path_645" data-name="Path 645" d="M82.8,42.585c-.883-.442-2.208.442-5.3,2.65-1.325.883,0,1.325,3.091,3.091.883.442,2.208-.442,5.3-2.65C87.211,44.794,85.887,44.352,82.8,42.585Z" transform="translate(262.996 145.105)" fill="#a7b2de"/>
  <path id="Path_646" data-name="Path 646" d="M81.4,41.785c-.883-.442-2.208.442-5.3,2.65-1.325.883,0,1.325,3.091,3.091.883.442,2.208-.442,5.3-2.65C85.811,43.994,84.487,43.552,81.4,41.785Z" transform="translate(258.213 142.372)" fill="#a7b2de"/>
  <path id="Path_647" data-name="Path 647" d="M83.627,42.935c-3.533-1.766-3.975-2.65-5.3-1.766-2.65,1.766-4.858,2.65-3.975,3.533,3.533,1.767,3.975,2.65,5.3,1.767C82.3,44.7,84.51,43.818,83.627,42.935Z" transform="translate(253.332 139.456)" fill="#a7b2de"/>
  <path id="Path_648" data-name="Path 648" d="M78.6,40.185c-.883-.442-2.208.442-5.3,2.65-1.325.883,0,1.325,3.091,3.091.883.442,2.208-.442,5.3-2.65C83.453,42.394,82.128,41.952,78.6,40.185Z" transform="translate(248.648 136.906)" fill="#a7b2de"/>
  <path id="Path_649" data-name="Path 649" d="M80.827,41.335c-3.533-1.767-3.975-2.65-5.3-1.767-2.65,1.767-4.858,2.65-3.975,3.533,3.533,1.767,3.975,2.65,5.3,1.767C79.944,43.1,81.71,42.218,80.827,41.335Z" transform="translate(243.766 133.99)" fill="#a7b2de"/>
  <path id="Path_650" data-name="Path 650" d="M79.427,40.535c-3.533-1.767-3.975-2.65-5.3-1.767-2.65,1.767-4.858,2.65-3.975,3.533,3.533,1.767,3.975,2.65,5.3,1.767C78.544,42.3,80.752,41.418,79.427,40.535Z" transform="translate(238.983 131.257)" fill="#a7b2de"/>
  <path id="Path_651" data-name="Path 651" d="M78.027,39.735c-3.533-1.767-3.975-2.65-5.3-1.767-2.65,1.767-4.858,2.65-3.975,3.533,3.533,1.767,3.975,2.65,5.3,1.767C77.144,41.5,79.352,40.618,78.027,39.735Z" transform="translate(234.201 128.524)" fill="#a7b2de"/>
  <path id="Path_652" data-name="Path 652" d="M73.1,36.985c-.883-.442-2.208.442-5.3,2.65-1.325.883,0,1.325,3.091,3.091.883.442,2.208-.442,5.3-2.65C77.511,39.194,76.187,38.752,73.1,36.985Z" transform="translate(229.859 125.974)" fill="#a7b2de"/>
  <path id="Path_653" data-name="Path 653" d="M90.233,52.635c-3.533-1.767-3.975-2.65-5.3-1.767-.442.442-1.325.883-.442,1.325,3.533,1.766,3.975,2.65,5.3,1.766C90.233,53.518,91.117,53.076,90.233,52.635Z" transform="translate(287.355 172.594)" fill="#a7b2de"/>
  <path id="Path_654" data-name="Path 654" d="M89.633,53.135c-3.533-1.766-3.975-2.65-5.3-1.766-.442.442-1.325.883-.442,1.325,3.533,1.767,3.975,2.65,5.3,1.767C89.633,54.018,90.075,53.135,89.633,53.135Z" transform="translate(285.305 174.302)" fill="#a7b2de"/>
  <path id="Path_655" data-name="Path 655" d="M90.933,53.935c-3.533-1.767-3.975-2.65-5.3-1.767-.442.442-1.325.883-.442,1.325,3.533,1.766,3.975,2.65,5.3,1.766C90.933,54.376,91.817,53.935,90.933,53.935Z" transform="translate(289.746 177.035)" fill="#a7b2de"/>
  <path id="Path_656" data-name="Path 656" d="M88.233,52.335c-3.533-1.767-3.975-2.65-5.3-1.767-.442.442-1.325.883-.442,1.325,3.533,1.767,3.975,2.65,5.3,1.767C88.233,53.218,88.675,52.776,88.233,52.335Z" transform="translate(280.522 171.569)" fill="#a7b2de"/>
  <path id="Path_657" data-name="Path 657" d="M89.727,50.835c-3.533-1.767-3.975-2.65-5.3-1.767-2.65,1.767-4.858,2.65-3.975,3.533,3.533,1.766,3.975,2.65,5.3,1.766C88.4,52.6,90.61,51.718,89.727,50.835Z" transform="translate(274.171 166.444)" fill="#a7b2de"/>
  <path id="Path_658" data-name="Path 658" d="M89.352,50.706c-4.858-2.65-5.3-3.533-6.624-2.65-2.65,1.767-4.858,2.65-3.975,3.533,4.858,2.65,5.3,3.533,6.624,2.65C88.027,52.472,90.235,51.589,89.352,50.706Z" transform="translate(268.363 163.04)" fill="#a7b2de"/>
  <path id="Path_659" data-name="Path 659" d="M109.174,62.127C73.844,41.812,76.053,42.7,74.728,43.579c-2.65,1.766-4.858,2.65-3.975,3.533,35.33,20.315,33.122,19.431,34.447,18.548C107.849,63.452,110.058,62.569,109.174,62.127Z" transform="translate(241.033 147.644)" fill="#a7b2de"/>
  <path id="Path_660" data-name="Path 660" d="M83.068,47.272c-10.157-5.741-9.716-6.183-11.041-5.3-2.65,1.767-4.858,2.65-3.975,3.533,10.157,5.741,9.716,6.183,11.041,5.3C81.743,48.6,83.951,47.714,83.068,47.272Z" transform="translate(231.809 142.185)" fill="#a7b2de"/>
  <path id="Path_661" data-name="Path 661" d="M75.827,42.935c-3.533-1.766-3.975-2.65-5.3-1.766-2.65,1.766-4.858,2.65-3.975,3.533,3.533,1.767,3.975,2.65,5.3,1.767C74.5,44.259,76.71,43.376,75.827,42.935Z" transform="translate(226.685 139.456)" fill="#a7b2de"/>
  <path id="Path_662" data-name="Path 662" d="M74.427,42.135c-3.533-1.767-3.975-2.65-5.3-1.767-2.65,1.767-4.858,2.65-3.975,3.533,3.533,1.766,3.975,2.65,5.3,1.766C73.1,43.459,75.31,42.576,74.427,42.135Z" transform="translate(221.902 136.723)" fill="#a7b2de"/>
  <path id="Path_663" data-name="Path 663" d="M73.027,41.335c-3.533-1.767-3.975-2.65-5.3-1.767-2.65,1.767-4.858,2.65-3.975,3.533,3.533,1.767,3.975,2.65,5.3,1.767C72.144,42.659,73.91,41.776,73.027,41.335Z" transform="translate(217.12 133.99)" fill="#a7b2de"/>
  <path id="Path_664" data-name="Path 664" d="M82.435,44.593c-12.365-7.066-11.482-7.066-12.807-6.183-2.65,1.766-4.858,2.65-3.975,3.533,12.365,7.066,11.482,7.066,12.807,6.183C81.11,46.36,83.318,45.476,82.435,44.593Z" transform="translate(223.61 129.848)" fill="#a7b2de"/>
  <path id="Path_665" data-name="Path 665" d="M78.027,41.935c-3.533-1.767-3.975-2.65-5.3-1.767-2.65,1.767-4.858,2.65-3.975,3.533,3.533,1.766,3.975,2.65,5.3,1.766C76.7,43.7,78.91,42.376,78.027,41.935Z" transform="translate(234.201 136.04)" fill="#a7b2de"/>
  <path id="Path_666" data-name="Path 666" d="M79.427,42.735c-3.533-1.766-3.975-2.65-5.3-1.766-2.65,1.766-4.858,2.65-3.975,3.533,3.533,1.767,3.975,2.65,5.3,1.767C78.1,44.5,80.31,43.176,79.427,42.735Z" transform="translate(238.983 138.773)" fill="#a7b2de"/>
  <path id="Path_667" data-name="Path 667" d="M80.827,43.535c-3.533-1.767-3.975-2.65-5.3-1.767-2.65,1.767-4.858,2.65-3.975,3.533,3.533,1.767,3.975,2.65,5.3,1.767C79.5,45.3,81.71,43.976,80.827,43.535Z" transform="translate(243.766 141.506)" fill="#a7b2de"/>
  <path id="Path_668" data-name="Path 668" d="M82.127,44.335c-3.533-1.767-3.975-2.65-5.3-1.767-2.65,1.767-4.858,2.65-3.975,3.533,3.533,1.767,3.975,2.65,5.3,1.767C81.244,46.1,83.452,44.776,82.127,44.335Z" transform="translate(248.207 144.239)" fill="#a7b2de"/>
  <path id="Path_669" data-name="Path 669" d="M83.527,45.135c-3.533-1.767-3.975-2.65-5.3-1.767-2.65,1.767-4.858,2.65-3.975,3.533,3.533,1.767,3.975,2.65,5.3,1.767C82.644,46.9,84.852,45.576,83.527,45.135Z" transform="translate(252.99 146.972)" fill="#a7b2de"/>
  <path id="Path_670" data-name="Path 670" d="M84.927,45.935c-3.533-1.767-3.975-2.65-5.3-1.767-2.65,1.767-4.858,2.65-3.975,3.533,3.533,1.767,3.975,2.65,5.3,1.767C84.044,47.7,85.81,46.376,84.927,45.935Z" transform="translate(257.773 149.705)" fill="#a7b2de"/>
  <path id="Path_671" data-name="Path 671" d="M86.327,46.735c-3.533-1.767-3.975-2.65-5.3-1.767-2.65,1.767-4.858,2.65-3.975,3.533,3.533,1.767,3.975,2.65,5.3,1.767C85.444,48.5,87.21,47.176,86.327,46.735Z" transform="translate(262.556 152.438)" fill="#a7b2de"/>
  <path id="Path_672" data-name="Path 672" d="M87.727,47.535c-3.533-1.767-3.975-2.65-5.3-1.767-2.65,1.767-4.858,2.65-3.975,3.533,3.533,1.767,3.975,2.65,5.3,1.767C86.4,48.859,88.61,47.976,87.727,47.535Z" transform="translate(267.338 155.171)" fill="#a7b2de"/>
  <path id="Path_673" data-name="Path 673" d="M89.127,48.335c-3.533-1.767-3.975-2.65-5.3-1.767-2.65,1.767-4.858,2.65-3.975,3.533,3.533,1.767,3.975,2.65,5.3,1.767C87.8,49.659,90.01,48.776,89.127,48.335Z" transform="translate(272.121 157.904)" fill="#a7b2de"/>
  <path id="Path_674" data-name="Path 674" d="M90.527,49.135c-3.533-1.767-3.975-2.65-5.3-1.767-2.65,1.767-4.858,2.65-3.975,3.533,3.533,1.767,3.975,2.65,5.3,1.767C89.2,50.459,91.41,49.576,90.527,49.135Z" transform="translate(276.904 160.637)" fill="#a7b2de"/>
  <path id="Path_675" data-name="Path 675" d="M91.927,49.935c-3.533-1.767-3.975-2.65-5.3-1.767-2.65,1.767-4.858,2.65-3.975,3.533,3.533,1.767,3.975,2.65,5.3,1.767C90.6,51.259,92.81,50.376,91.927,49.935Z" transform="translate(281.686 163.37)" fill="#a7b2de"/>
  <path id="Path_676" data-name="Path 676" d="M93.327,50.735c-3.533-1.767-3.975-2.65-5.3-1.767-2.65,1.767-4.858,2.65-3.975,3.533,3.533,1.767,3.975,2.65,5.3,1.767C92,52.059,94.21,51.176,93.327,50.735Z" transform="translate(286.469 166.103)" fill="#a7b2de"/>
  <path id="Path_677" data-name="Path 677" d="M94.727,51.535c-3.533-1.767-3.975-2.65-5.3-1.767-2.65,1.767-4.858,2.65-3.975,3.533,3.533,1.767,3.975,2.65,5.3,1.767C93.4,52.859,95.61,51.976,94.727,51.535Z" transform="translate(291.252 168.836)" fill="#a7b2de"/>
  <path id="Path_678" data-name="Path 678" d="M96.027,52.335c-3.533-1.767-3.975-2.65-5.3-1.767-2.65,1.767-4.858,2.65-3.975,3.533,3.533,1.766,3.975,2.65,5.3,1.766C95.144,53.659,97.352,52.776,96.027,52.335Z" transform="translate(295.693 171.569)" fill="#a7b2de"/>
  <path id="Path_679" data-name="Path 679" d="M80.749,38.528c-4.416-2.65-4.858-3.091-6.183-2.208-.883.883-3.091,1.767-2.208,2.208,4.416,2.65,4.858,3.091,6.183,2.208C79.424,39.853,82.074,38.97,80.749,38.528Z" transform="translate(246.494 122.665)" fill="#a7b2de"/>
  <path id="Path_680" data-name="Path 680" d="M82.449,39.428c-4.416-2.65-4.858-3.091-6.183-2.208-.883.883-3.091,1.767-2.208,2.208,4.416,2.65,4.858,3.091,6.183,2.208C81.124,41.194,83.332,39.87,82.449,39.428Z" transform="translate(252.302 125.739)" fill="#a7b2de"/>
  <path id="Path_681" data-name="Path 681" d="M84.049,40.328c-4.416-2.65-4.858-3.091-6.183-2.208-.883.883-3.091,1.767-2.208,2.208,4.416,2.65,4.858,3.091,6.183,2.208C82.724,42.094,84.932,40.77,84.049,40.328Z" transform="translate(257.767 128.814)" fill="#a7b2de"/>
  <path id="Path_682" data-name="Path 682" d="M85.649,41.328c-4.416-2.65-4.858-3.091-6.183-2.208-.883.883-3.091,1.767-2.208,2.208,4.416,2.65,4.858,3.091,6.183,2.208C84.324,42.653,86.532,41.77,85.649,41.328Z" transform="translate(263.233 132.23)" fill="#a7b2de"/>
  <path id="Path_683" data-name="Path 683" d="M87.249,42.228c-4.416-2.65-4.858-3.091-6.183-2.208-.883.883-3.091,1.767-2.208,2.208,4.416,2.65,4.858,3.091,6.183,2.208C85.924,43.994,88.132,42.67,87.249,42.228Z" transform="translate(268.699 135.305)" fill="#a7b2de"/>
  <path id="Path_684" data-name="Path 684" d="M88.849,43.128c-4.416-2.65-4.858-3.091-6.183-2.208-.883.883-3.091,1.767-2.208,2.208,4.416,2.65,4.858,3.091,6.183,2.208C87.966,44.894,90.174,43.57,88.849,43.128Z" transform="translate(274.165 138.379)" fill="#a7b2de"/>
  <path id="Path_685" data-name="Path 685" d="M90.549,44.028c-4.416-2.65-4.858-3.091-6.183-2.208-.883.883-3.091,1.767-2.208,2.208,4.416,2.65,4.858,3.091,6.183,2.208C89.224,45.794,91.432,44.911,90.549,44.028Z" transform="translate(279.973 141.454)" fill="#a7b2de"/>
  <path id="Path_686" data-name="Path 686" d="M92.149,45.028c-4.416-2.65-4.858-3.091-6.183-2.208-.883.883-3.091,1.767-2.208,2.208,4.416,2.65,4.858,3.091,6.183,2.208C90.824,46.353,93.032,45.47,92.149,45.028Z" transform="translate(285.439 144.87)" fill="#a7b2de"/>
  <path id="Path_687" data-name="Path 687" d="M93.749,45.928c-4.416-2.65-4.858-3.091-6.183-2.208-.883.883-3.091,1.767-2.208,2.208,4.416,2.65,4.858,3.091,6.183,2.208C92.424,47.694,94.632,46.37,93.749,45.928Z" transform="translate(290.905 147.945)" fill="#a7b2de"/>
  <path id="Path_688" data-name="Path 688" d="M95.349,46.828c-4.416-2.65-4.858-3.091-6.183-2.208-.883.883-3.091,1.767-2.208,2.208,4.416,2.65,4.858,3.091,6.183,2.208C94.024,48.594,96.232,47.711,95.349,46.828Z" transform="translate(296.371 151.019)" fill="#a7b2de"/>
  <path id="Path_689" data-name="Path 689" d="M96.949,47.828c-4.416-2.65-4.858-3.091-6.183-2.208-.883.883-3.091,1.767-2.208,2.208,4.416,2.65,4.858,3.091,6.183,2.208S98.274,48.27,96.949,47.828Z" transform="translate(301.837 154.436)" fill="#a7b2de"/>
  <path id="Path_690" data-name="Path 690" d="M98.649,48.728c-4.416-2.65-4.858-3.091-6.183-2.208-.883.883-3.091,1.767-2.208,2.208,4.416,2.65,4.858,3.091,6.183,2.208C97.324,50.494,99.532,49.17,98.649,48.728Z" transform="translate(307.645 157.51)" fill="#a7b2de"/>
  <path id="Path_691" data-name="Path 691" d="M100.249,49.628c-4.416-2.65-4.858-3.091-6.183-2.208-.883.883-3.091,1.767-2.208,2.208,4.416,2.65,4.858,3.091,6.183,2.208C98.924,51.394,101.132,50.07,100.249,49.628Z" transform="translate(313.111 160.585)" fill="#a7b2de"/>
  <path id="Path_692" data-name="Path 692" d="M79.149,37.428c-4.416-2.65-4.858-3.091-6.183-2.208-.883.883-3.091,1.767-2.208,2.208,4.416,2.65,4.858,3.091,6.183,2.208C77.824,39.194,80.032,37.87,79.149,37.428Z" transform="translate(241.028 118.907)" fill="#cfd5eb"/>
  <path id="Path_693" data-name="Path 693" d="M79.652,38.661c-5.3-3.091-5.3-3.533-6.624-2.65-2.65,1.766-4.858,2.65-3.975,3.533,5.3,3.091,5.3,3.533,6.624,2.65C78.769,40.427,80.977,39.544,79.652,38.661Z" transform="translate(235.226 121.649)" fill="#cfd5eb"/>
  <path id="Path_694" data-name="Path 694" d="M80.127,38.835c-3.533-1.766-3.975-2.65-5.3-1.766-2.65,1.766-4.858,2.65-3.975,3.533,3.533,1.767,3.975,2.65,5.3,1.767C78.8,40.159,81.01,39.276,80.127,38.835Z" transform="translate(241.375 125.449)" fill="#cfd5eb"/>
  <path id="Path_695" data-name="Path 695" d="M81.527,39.635c-3.533-1.767-3.975-2.65-5.3-1.767-2.65,1.767-4.858,2.65-3.975,3.533,3.533,1.767,3.975,2.65,5.3,1.767C80.2,40.959,82.41,40.076,81.527,39.635Z" transform="translate(246.158 128.182)" fill="#cfd5eb"/>
  <path id="Path_696" data-name="Path 696" d="M82.827,40.435c-3.533-1.767-3.975-2.65-5.3-1.767-2.65,1.767-4.858,2.65-3.975,3.533,3.533,1.767,3.975,2.65,5.3,1.767C81.944,41.759,84.152,40.876,82.827,40.435Z" transform="translate(250.599 130.915)" fill="#cfd5eb"/>
  <path id="Path_697" data-name="Path 697" d="M84.227,41.135c-3.533-1.767-3.975-2.65-5.3-1.767-2.65,1.767-4.858,2.65-3.975,3.533,3.533,1.767,3.975,2.65,5.3,1.767C83.344,42.9,85.11,42.018,84.227,41.135Z" transform="translate(255.381 133.307)" fill="#cfd5eb"/>
  <path id="Path_698" data-name="Path 698" d="M82,39.985c-.883-.442-2.208.442-5.3,2.65-1.325.883,0,1.325,3.091,3.091.883.442,2.208-.442,5.3-2.65C86.853,42.194,85.528,41.752,82,39.985Z" transform="translate(260.263 136.222)" fill="#cfd5eb"/>
  <path id="Path_699" data-name="Path 699" d="M87.027,42.735c-3.533-1.766-3.975-2.65-5.3-1.766-2.65,1.766-4.858,2.65-3.975,3.533,3.533,1.767,3.975,2.65,5.3,1.767C85.7,44.5,87.91,43.618,87.027,42.735Z" transform="translate(264.947 138.773)" fill="#cfd5eb"/>
  <path id="Path_700" data-name="Path 700" d="M88.427,43.535c-3.533-1.767-3.975-2.65-5.3-1.767-2.65,1.767-4.858,2.65-3.975,3.533,3.533,1.767,3.975,2.65,5.3,1.767C87.1,45.3,89.31,44.418,88.427,43.535Z" transform="translate(269.73 141.506)" fill="#cfd5eb"/>
  <path id="Path_701" data-name="Path 701" d="M89.827,44.335c-3.533-1.767-3.975-2.65-5.3-1.767-2.65,1.767-4.858,2.65-3.975,3.533,3.533,1.767,3.975,2.65,5.3,1.767C88.5,46.1,90.71,45.218,89.827,44.335Z" transform="translate(274.512 144.239)" fill="#cfd5eb"/>
  <path id="Path_702" data-name="Path 702" d="M91.227,45.135c-3.533-1.767-3.975-2.65-5.3-1.767-2.65,1.767-4.858,2.65-3.975,3.533,3.533,1.767,3.975,2.65,5.3,1.767C89.9,46.9,92.11,46.018,91.227,45.135Z" transform="translate(279.295 146.972)" fill="#cfd5eb"/>
  <path id="Path_703" data-name="Path 703" d="M92.627,45.935c-3.533-1.767-3.975-2.65-5.3-1.767-2.65,1.767-4.858,2.65-3.975,3.533,3.533,1.767,3.975,2.65,5.3,1.767C91.3,47.7,93.51,46.818,92.627,45.935Z" transform="translate(284.078 149.705)" fill="#cfd5eb"/>
  <path id="Path_704" data-name="Path 704" d="M94.027,46.735c-3.533-1.767-3.975-2.65-5.3-1.767-2.65,1.767-4.858,2.65-3.975,3.533,3.533,1.767,3.975,2.65,5.3,1.767C92.7,48.5,94.91,47.176,94.027,46.735Z" transform="translate(288.861 152.438)" fill="#cfd5eb"/>
  <path id="Path_705" data-name="Path 705" d="M95.327,47.535c-3.533-1.767-3.975-2.65-5.3-1.767-2.65,1.767-4.858,2.65-3.975,3.533,3.533,1.767,3.975,2.65,5.3,1.767C94.444,49.3,96.652,47.976,95.327,47.535Z" transform="translate(293.302 155.171)" fill="#cfd5eb"/>
  <path id="Path_706" data-name="Path 706" d="M96.727,48.335c-3.533-1.767-3.975-2.65-5.3-1.767-2.65,1.767-4.858,2.65-3.975,3.533,3.533,1.767,3.975,2.65,5.3,1.767C95.844,50.1,98.052,48.776,96.727,48.335Z" transform="translate(298.084 157.904)" fill="#cfd5eb"/>
  <path id="Path_707" data-name="Path 707" d="M98.127,49.135c-3.533-1.767-3.975-2.65-5.3-1.767-2.65,1.767-4.858,2.65-3.975,3.533,3.533,1.767,3.975,2.65,5.3,1.767C97.244,50.9,99.01,49.576,98.127,49.135Z" transform="translate(302.867 160.637)" fill="#cfd5eb"/>
  <path id="Path_708" data-name="Path 708" d="M99.527,49.935c-3.533-1.767-3.975-2.65-5.3-1.767-2.65,1.767-4.858,2.65-3.975,3.533,3.533,1.767,3.975,2.65,5.3,1.767C98.644,51.7,100.41,50.376,99.527,49.935Z" transform="translate(307.65 163.37)" fill="#cfd5eb"/>
  <path id="Path_709" data-name="Path 709" d="M98.952,51.761c-5.3-3.091-5.3-3.533-6.624-2.65-2.65,1.767-4.858,2.65-3.975,3.533,5.3,3.091,5.3,3.533,6.624,2.65C97.627,53.085,99.835,52.2,98.952,51.761Z" transform="translate(301.159 166.401)" fill="#cfd5eb"/>
  <path id="Path_710" data-name="Path 710" d="M96.127,50.035c-3.533-1.767-3.975-2.65-5.3-1.767-2.65,1.767-4.858,2.65-3.975,3.533,3.533,1.767,3.975,2.65,5.3,1.767C94.8,51.359,97.01,50.476,96.127,50.035Z" transform="translate(296.035 163.711)" fill="#cfd5eb"/>
  <path id="Path_711" data-name="Path 711" d="M94.727,49.235c-3.533-1.766-3.975-2.65-5.3-1.766-2.65,1.766-4.858,2.65-3.975,3.533,3.533,1.767,3.975,2.65,5.3,1.767C93.844,50.559,95.61,49.676,94.727,49.235Z" transform="translate(291.252 160.978)" fill="#cfd5eb"/>
  <path id="Path_712" data-name="Path 712" d="M93.327,48.435c-3.533-1.767-3.975-2.65-5.3-1.767-2.65,1.767-4.858,2.65-3.975,3.533,3.533,1.766,3.975,2.65,5.3,1.766C92.444,49.759,94.21,48.876,93.327,48.435Z" transform="translate(286.469 158.245)" fill="#cfd5eb"/>
  <path id="Path_713" data-name="Path 713" d="M88.3,45.585c-.883-.442-2.208.442-5.3,2.65-1.325.883,0,1.325,3.091,3.091.883.442,2.208-.442,5.3-2.65C93.153,47.794,91.828,47.352,88.3,45.585Z" transform="translate(281.785 155.353)" fill="#cfd5eb"/>
  <path id="Path_714" data-name="Path 714" d="M87,44.785c-.883-.442-2.208.442-5.3,2.65-1.325.883,0,1.325,3.091,3.091.883.442,2.208-.442,5.3-2.65C91.411,46.994,90.087,46.994,87,44.785Z" transform="translate(277.344 152.62)" fill="#cfd5eb"/>
  <path id="Path_715" data-name="Path 715" d="M89.227,46.035c-3.533-1.767-3.975-2.65-5.3-1.767-2.65,1.767-4.858,2.65-3.975,3.533,3.533,1.766,3.975,2.65,5.3,1.766C87.9,47.359,90.11,46.476,89.227,46.035Z" transform="translate(272.463 150.046)" fill="#cfd5eb"/>
  <path id="Path_716" data-name="Path 716" d="M87.827,45.235c-3.533-1.767-3.975-2.65-5.3-1.767-2.65,1.767-4.858,2.65-3.975,3.533,3.533,1.767,3.975,2.65,5.3,1.767C86.5,46.559,88.71,45.676,87.827,45.235Z" transform="translate(267.68 147.313)" fill="#cfd5eb"/>
  <path id="Path_717" data-name="Path 717" d="M82.8,42.385c-.883-.442-2.208.442-5.3,2.65-1.325.883,0,1.325,3.091,3.091.883.442,2.208-.442,5.3-2.65C87.211,44.594,85.887,44.594,82.8,42.385Z" transform="translate(262.996 144.421)" fill="#cfd5eb"/>
  <path id="Path_718" data-name="Path 718" d="M81.4,41.585c-.883-.442-2.208.442-5.3,2.65-1.325.883,0,1.325,3.091,3.091.883.442,2.208-.442,5.3-2.65C85.811,43.794,84.487,43.794,81.4,41.585Z" transform="translate(258.213 141.688)" fill="#cfd5eb"/>
  <path id="Path_719" data-name="Path 719" d="M83.627,42.835c-3.533-1.767-3.975-2.65-5.3-1.767-2.65,1.767-4.858,2.65-3.975,3.533,3.533,1.767,3.975,2.65,5.3,1.767C82.3,44.6,84.51,43.276,83.627,42.835Z" transform="translate(253.332 139.114)" fill="#cfd5eb"/>
  <path id="Path_720" data-name="Path 720" d="M78.6,39.985c-.883-.442-2.208.442-5.3,2.65-1.325.883,0,1.325,3.091,3.091.883.442,2.208-.442,5.3-2.65C83.011,42.194,82.128,42.194,78.6,39.985Z" transform="translate(248.648 136.222)" fill="#cfd5eb"/>
  <path id="Path_721" data-name="Path 721" d="M80.827,41.235c-3.533-1.767-3.975-2.65-5.3-1.767-2.65,1.767-4.858,2.65-3.975,3.533,3.533,1.767,3.975,2.65,5.3,1.767C79.944,43,81.71,41.676,80.827,41.235Z" transform="translate(243.766 133.648)" fill="#cfd5eb"/>
  <path id="Path_722" data-name="Path 722" d="M79.427,40.435c-3.533-1.767-3.975-2.65-5.3-1.767-2.65,1.767-4.858,2.65-3.975,3.533,3.533,1.767,3.975,2.65,5.3,1.767C78.544,42.2,80.752,40.876,79.427,40.435Z" transform="translate(238.983 130.915)" fill="#cfd5eb"/>
  <path id="Path_723" data-name="Path 723" d="M78.027,39.635c-3.533-1.767-3.975-2.65-5.3-1.767-2.65,1.767-4.858,2.65-3.975,3.533,3.533,1.767,3.975,2.65,5.3,1.767C77.144,41.4,79.352,40.076,78.027,39.635Z" transform="translate(234.201 128.182)" fill="#cfd5eb"/>
  <path id="Path_724" data-name="Path 724" d="M73.1,36.885c-.883-.442-2.208.442-5.3,2.65-1.325.883,0,1.325,3.091,3.091.883.442,2.208-.442,5.3-2.65C77.511,39.094,76.187,38.652,73.1,36.885Z" transform="translate(229.859 125.632)" fill="#cfd5eb"/>
  <path id="Path_725" data-name="Path 725" d="M90.233,52.535c-3.533-1.767-3.975-2.65-5.3-1.767-.442.442-1.325.883-.442,1.325,3.533,1.767,3.975,2.65,5.3,1.767C90.233,53.418,91.117,52.976,90.233,52.535Z" transform="translate(287.355 172.252)" fill="#cfd5eb"/>
  <path id="Path_726" data-name="Path 726" d="M89.633,52.935c-3.533-1.766-3.975-2.65-5.3-1.766-.442.442-1.325.883-.442,1.325,3.533,1.767,3.975,2.65,5.3,1.767C89.633,53.818,90.075,53.376,89.633,52.935Z" transform="translate(285.305 173.618)" fill="#cfd5eb"/>
  <path id="Path_727" data-name="Path 727" d="M90.933,53.735c-3.533-1.767-3.975-2.65-5.3-1.767-.442.442-1.325.883-.442,1.325,3.533,1.767,3.975,2.65,5.3,1.767C90.933,54.618,91.817,54.176,90.933,53.735Z" transform="translate(289.746 176.351)" fill="#cfd5eb"/>
  <path id="Path_728" data-name="Path 728" d="M88.233,52.235c-3.533-1.767-3.975-2.65-5.3-1.767-.442.442-1.325.883-.442,1.325,3.533,1.767,3.975,2.65,5.3,1.767C88.233,52.676,88.675,52.235,88.233,52.235Z" transform="translate(280.522 171.227)" fill="#cfd5eb"/>
  <path id="Path_729" data-name="Path 729" d="M89.727,50.735c-3.533-1.767-3.975-2.65-5.3-1.767-2.65,1.767-4.858,2.65-3.975,3.533,3.533,1.767,3.975,2.65,5.3,1.767C88.4,52.5,90.61,51.176,89.727,50.735Z" transform="translate(274.171 166.103)" fill="#cfd5eb"/>
  <path id="Path_730" data-name="Path 730" d="M89.352,50.606c-4.858-2.65-5.3-3.533-6.624-2.65-2.65,1.767-4.858,2.65-3.975,3.533,4.858,2.65,5.3,3.533,6.624,2.65C88.027,52.372,90.235,51.048,89.352,50.606Z" transform="translate(268.363 162.698)" fill="#cfd5eb"/>
  <path id="Path_731" data-name="Path 731" d="M109.174,61.927C73.844,41.612,76.053,42.5,74.728,43.379c-2.65,1.767-4.858,2.65-3.975,3.533,35.33,20.315,33.122,19.431,34.447,18.548C107.849,63.694,110.058,62.81,109.174,61.927Z" transform="translate(241.033 146.961)" fill="#cfd5eb"/>
  <path id="Path_732" data-name="Path 732" d="M83.068,47.072c-10.157-5.741-9.716-6.183-11.041-5.3-2.65,1.767-4.858,2.65-3.975,3.533,10.157,5.741,9.716,6.183,11.041,5.3C81.743,48.838,83.951,47.955,83.068,47.072Z" transform="translate(231.809 141.501)" fill="#cfd5eb"/>
  <path id="Path_733" data-name="Path 733" d="M75.827,42.835c-3.533-1.767-3.975-2.65-5.3-1.767-2.65,1.767-4.858,2.65-3.975,3.533,3.533,1.767,3.975,2.65,5.3,1.767C74.5,44.159,76.71,43.276,75.827,42.835Z" transform="translate(226.685 139.114)" fill="#cfd5eb"/>
  <path id="Path_734" data-name="Path 734" d="M74.427,42.035c-3.533-1.767-3.975-2.65-5.3-1.767-2.65,1.767-4.858,2.65-3.975,3.533,3.533,1.767,3.975,2.65,5.3,1.767C73.1,43.359,75.31,42.476,74.427,42.035Z" transform="translate(221.902 136.381)" fill="#cfd5eb"/>
  <path id="Path_735" data-name="Path 735" d="M73.027,41.235c-3.533-1.767-3.975-2.65-5.3-1.767-2.65,1.767-4.858,2.65-3.975,3.533,3.533,1.767,3.975,2.65,5.3,1.767C72.144,42.559,73.91,41.676,73.027,41.235Z" transform="translate(217.12 133.648)" fill="#cfd5eb"/>
  <path id="Path_736" data-name="Path 736" d="M82.435,44.493c-12.365-7.066-11.482-7.066-12.807-6.183-2.65,1.767-4.858,2.65-3.975,3.533,12.365,7.066,11.482,7.066,12.807,6.183C81.11,46.26,83.318,44.935,82.435,44.493Z" transform="translate(223.61 129.507)" fill="#cfd5eb"/>
  <path id="Path_737" data-name="Path 737" d="M78.027,41.835c-3.533-1.767-3.975-2.65-5.3-1.767-2.65,1.767-4.858,2.65-3.975,3.533,3.533,1.767,3.975,2.65,5.3,1.767C76.7,43.159,78.91,42.276,78.027,41.835Z" transform="translate(234.201 135.698)" fill="#cfd5eb"/>
  <path id="Path_738" data-name="Path 738" d="M79.427,42.635c-3.533-1.767-3.975-2.65-5.3-1.767-2.65,1.767-4.858,2.65-3.975,3.533,3.533,1.767,3.975,2.65,5.3,1.767C78.1,43.959,80.31,43.076,79.427,42.635Z" transform="translate(238.983 138.431)" fill="#cfd5eb"/>
  <path id="Path_739" data-name="Path 739" d="M80.827,43.435c-3.533-1.767-3.975-2.65-5.3-1.767-2.65,1.767-4.858,2.65-3.975,3.533,3.533,1.766,3.975,2.65,5.3,1.766C79.5,44.759,81.71,43.876,80.827,43.435Z" transform="translate(243.766 141.164)" fill="#cfd5eb"/>
  <path id="Path_740" data-name="Path 740" d="M82.127,44.235c-3.533-1.766-3.975-2.65-5.3-1.766-2.65,1.766-4.858,2.65-3.975,3.533,3.533,1.767,3.975,2.65,5.3,1.767C81.244,45.559,83.452,44.676,82.127,44.235Z" transform="translate(248.207 143.897)" fill="#cfd5eb"/>
  <path id="Path_741" data-name="Path 741" d="M83.527,45.035c-3.533-1.767-3.975-2.65-5.3-1.767-2.65,1.767-4.858,2.65-3.975,3.533,3.533,1.767,3.975,2.65,5.3,1.767C82.644,46.359,84.852,45.476,83.527,45.035Z" transform="translate(252.99 146.63)" fill="#cfd5eb"/>
  <path id="Path_742" data-name="Path 742" d="M84.927,45.835c-3.533-1.767-3.975-2.65-5.3-1.767-2.65,1.767-4.858,2.65-3.975,3.533,3.533,1.766,3.975,2.65,5.3,1.766C84.044,47.159,85.81,46.276,84.927,45.835Z" transform="translate(257.773 149.363)" fill="#cfd5eb"/>
  <path id="Path_743" data-name="Path 743" d="M86.327,46.635c-3.533-1.766-3.975-2.65-5.3-1.766-2.65,1.766-4.858,2.65-3.975,3.533,3.533,1.767,3.975,2.65,5.3,1.767C85.444,47.959,87.21,47.076,86.327,46.635Z" transform="translate(262.556 152.096)" fill="#cfd5eb"/>
  <path id="Path_744" data-name="Path 744" d="M87.727,47.435c-3.533-1.767-3.975-2.65-5.3-1.767-2.65,1.767-4.858,2.65-3.975,3.533,3.533,1.767,3.975,2.65,5.3,1.767C86.4,48.759,88.61,47.876,87.727,47.435Z" transform="translate(267.338 154.829)" fill="#cfd5eb"/>
  <path id="Path_745" data-name="Path 745" d="M89.127,48.235c-3.533-1.767-3.975-2.65-5.3-1.767-2.65,1.767-4.858,2.65-3.975,3.533,3.533,1.766,3.975,2.65,5.3,1.766C87.8,49.559,90.01,48.676,89.127,48.235Z" transform="translate(272.121 157.562)" fill="#cfd5eb"/>
  <path id="Path_746" data-name="Path 746" d="M90.527,49.035c-3.533-1.766-3.975-2.65-5.3-1.766-2.65,1.766-4.858,2.65-3.975,3.533,3.533,1.767,3.975,2.65,5.3,1.767C89.2,50.359,91.41,49.476,90.527,49.035Z" transform="translate(276.904 160.295)" fill="#cfd5eb"/>
  <path id="Path_747" data-name="Path 747" d="M91.927,49.835c-3.533-1.767-3.975-2.65-5.3-1.767-2.65,1.767-4.858,2.65-3.975,3.533,3.533,1.767,3.975,2.65,5.3,1.767C90.6,51.159,92.81,50.276,91.927,49.835Z" transform="translate(281.686 163.028)" fill="#cfd5eb"/>
  <path id="Path_748" data-name="Path 748" d="M93.327,50.535c-3.533-1.766-3.975-2.65-5.3-1.766-2.65,1.766-4.858,2.65-3.975,3.533,3.533,1.767,3.975,2.65,5.3,1.767C92,52.3,94.21,51.418,93.327,50.535Z" transform="translate(286.469 165.419)" fill="#cfd5eb"/>
  <path id="Path_749" data-name="Path 749" d="M94.627,51.335c-3.533-1.767-3.975-2.65-5.3-1.767-2.65,1.767-4.858,2.65-3.975,3.533,3.533,1.767,3.975,2.65,5.3,1.767C93.744,53.1,95.952,52.218,94.627,51.335Z" transform="translate(290.91 168.152)" fill="#cfd5eb"/>
  <path id="Path_750" data-name="Path 750" d="M96.027,52.135c-3.533-1.767-3.975-2.65-5.3-1.767-2.65,1.767-4.858,2.65-3.975,3.533,3.533,1.766,3.975,2.65,5.3,1.766C95.144,53.9,97.352,53.018,96.027,52.135Z" transform="translate(295.693 170.885)" fill="#cfd5eb"/>
  <path id="Path_751" data-name="Path 751" d="M80.749,38.328c-4.416-2.65-4.858-3.091-6.183-2.208-.883.883-3.091,1.767-2.208,2.208,4.416,2.65,4.858,3.091,6.183,2.208C79.424,40.094,81.632,39.211,80.749,38.328Z" transform="translate(246.494 121.981)" fill="#cfd5eb"/>
  <path id="Path_752" data-name="Path 752" d="M82.449,39.328c-4.416-2.65-4.858-3.091-6.183-2.208-.883.883-3.091,1.766-2.208,2.208,4.416,2.65,4.858,3.091,6.183,2.208C81.124,40.653,83.332,39.77,82.449,39.328Z" transform="translate(252.302 125.398)" fill="#cfd5eb"/>
  <path id="Path_753" data-name="Path 753" d="M84.049,40.228c-4.416-2.65-4.858-3.091-6.183-2.208-.883.883-3.091,1.767-2.208,2.208,4.416,2.65,4.858,3.091,6.183,2.208C82.724,41.994,84.932,40.67,84.049,40.228Z" transform="translate(257.767 128.472)" fill="#cfd5eb"/>
  <path id="Path_754" data-name="Path 754" d="M85.649,41.128c-4.416-2.65-4.858-3.091-6.183-2.208-.883.883-3.091,1.767-2.208,2.208,4.416,2.65,4.858,3.091,6.183,2.208C84.324,42.894,86.532,41.57,85.649,41.128Z" transform="translate(263.233 131.547)" fill="#cfd5eb"/>
  <path id="Path_755" data-name="Path 755" d="M87.249,42.128c-4.416-2.65-4.858-3.091-6.183-2.208-.883.883-3.091,1.766-2.208,2.208,4.416,2.65,4.858,3.091,6.183,2.208C85.924,43.453,88.132,42.57,87.249,42.128Z" transform="translate(268.699 134.963)" fill="#cfd5eb"/>
  <path id="Path_756" data-name="Path 756" d="M88.849,43.028c-4.416-2.65-4.858-3.091-6.183-2.208-.883.883-3.091,1.767-2.208,2.208,4.416,2.65,4.858,3.091,6.183,2.208C87.524,44.794,90.174,43.47,88.849,43.028Z" transform="translate(274.165 138.038)" fill="#cfd5eb"/>
  <path id="Path_757" data-name="Path 757" d="M90.549,43.928c-4.416-2.65-4.858-3.091-6.183-2.208-.883.883-3.091,1.767-2.208,2.208,4.416,2.65,4.858,3.091,6.183,2.208C89.224,45.694,91.432,44.37,90.549,43.928Z" transform="translate(279.973 141.112)" fill="#cfd5eb"/>
  <path id="Path_758" data-name="Path 758" d="M92.149,44.828c-4.416-2.65-4.858-3.091-6.183-2.208-.883.883-3.091,1.767-2.208,2.208,4.416,2.65,4.858,3.091,6.183,2.208C90.824,46.594,93.032,45.711,92.149,44.828Z" transform="translate(285.439 144.187)" fill="#cfd5eb"/>
  <path id="Path_759" data-name="Path 759" d="M93.749,45.828c-4.416-2.65-4.858-3.091-6.183-2.208-.883.883-3.091,1.766-2.208,2.208,4.416,2.65,4.858,3.091,6.183,2.208C92.424,47.153,94.632,46.27,93.749,45.828Z" transform="translate(290.905 147.603)" fill="#cfd5eb"/>
  <path id="Path_760" data-name="Path 760" d="M95.349,46.728c-4.416-2.65-4.858-3.091-6.183-2.208-.883.883-3.091,1.767-2.208,2.208,4.416,2.65,4.858,3.091,6.183,2.208C94.024,48.494,96.232,47.17,95.349,46.728Z" transform="translate(296.371 150.678)" fill="#cfd5eb"/>
  <path id="Path_761" data-name="Path 761" d="M96.949,47.628c-4.416-2.65-4.858-3.091-6.183-2.208-.883.883-3.091,1.767-2.208,2.208,4.416,2.65,4.858,3.091,6.183,2.208C96.066,49.394,98.274,48.511,96.949,47.628Z" transform="translate(301.837 153.752)" fill="#cfd5eb"/>
  <path id="Path_762" data-name="Path 762" d="M98.649,48.628c-4.416-2.65-4.858-3.091-6.183-2.208-.883.883-3.091,1.767-2.208,2.208,4.416,2.65,4.858,3.091,6.183,2.208C97.324,49.953,99.532,49.07,98.649,48.628Z" transform="translate(307.645 157.169)" fill="#cfd5eb"/>
  <path id="Path_763" data-name="Path 763" d="M100.249,49.528c-4.416-2.65-4.858-3.091-6.183-2.208-.883.883-3.091,1.766-2.208,2.208,4.416,2.65,4.858,3.091,6.183,2.208C98.924,51.294,101.132,49.97,100.249,49.528Z" transform="translate(313.111 160.243)" fill="#cfd5eb"/>
  <path id="Path_764" data-name="Path 764" d="M95.3,51.756a3.772,3.772,0,0,0-3.091,0,.92.92,0,0,0,0,1.767,3.772,3.772,0,0,0,3.091,0A.92.92,0,0,0,95.3,51.756Z" transform="translate(312.756 175.68)" fill="#fb8e05"/>
  <path id="Path_765" data-name="Path 765" d="M93.8,52.556a3.772,3.772,0,0,0-3.091,0,.92.92,0,0,0,0,1.767,3.772,3.772,0,0,0,3.091,0A.92.92,0,0,0,93.8,52.556Z" transform="translate(307.632 178.413)" fill="#fb8e05"/>
  <path id="Path_766" data-name="Path 766" d="M95,53.156a3.772,3.772,0,0,0-3.091,0,.92.92,0,0,0,0,1.767,3.772,3.772,0,0,0,3.091,0A.92.92,0,0,0,95,53.156Z" transform="translate(311.731 180.463)" fill="#fb8e05"/>
  <path id="Path_767" data-name="Path 767" d="M92.4,53.256a3.772,3.772,0,0,0-3.091,0,.92.92,0,0,0,0,1.767,3.772,3.772,0,0,0,3.091,0C93.287,54.581,93.287,54.139,92.4,53.256Z" transform="translate(302.849 180.804)" fill="#fb8e05"/>
  <path id="Path_768" data-name="Path 768" d="M93.6,53.856a3.772,3.772,0,0,0-3.091,0,.92.92,0,0,0,0,1.767,3.772,3.772,0,0,0,3.091,0C94.487,55.623,94.487,54.739,93.6,53.856Z" transform="translate(306.949 182.854)" fill="#fb8e05"/>
  <ellipse id="Ellipse_32" data-name="Ellipse 32" cx="69.777" cy="121.005" rx="69.777" ry="121.005" transform="translate(91.763 334.846) rotate(-89.689)" fill="#3e3f61"/>
  <path id="Path_769" data-name="Path 769" d="M226.833,65.028c-47.254-27.381-123.655-27.381-170.908-.442C30.752,79.16,19.27,98.592,21.037,117.582c1.325-16.34,13.249-32.68,34.888-45.046C102.737,45.6,179.579,45.6,226.833,72.978c22.081,12.807,34.005,29.147,35.33,45.929C264.371,99.033,252.447,79.6,226.833,65.028Z" transform="translate(71.263 151.809)" fill="#525798"/>
  <path id="Path_770" data-name="Path 770" d="M58.848,61.324c-.883-.442-2.208-.442-2.65.442l-20.756,26.5c-.442.442,0,1.767.442,1.325,4.858-1.767,17.223-5.3,22.523-3.975C64.589,86.939,82.7,100.629,82.7,100.629L81.37,74.573Z" transform="translate(120.452 208.508)" fill="#525798"/>
  <g id="Group_349" data-name="Group 349" transform="translate(92.409 196.246)">
    <g id="Group_344" data-name="Group 344" clip-path="url(#clip-path)">
      <path id="Path_771" data-name="Path 771" d="M43.7,96.231l13.249,8.391L58.715,74.15,49.441,71.5Z" transform="translate(56.881 48.015)" fill="#e36049"/>
    </g>
    <g id="Group_345" data-name="Group 345" clip-path="url(#clip-path)">
      <path id="Path_773" data-name="Path 773" d="M49.6,73.708l7.066,32.68,10.157-5.741L58.432,71.5Z" transform="translate(77.036 48.015)" fill="#e36049"/>
    </g>
    <g id="Group_346" data-name="Group 346" clip-path="url(#clip-path)">
      <path id="Path_775" data-name="Path 775" d="M45.4,108.8l9.716,1.325L57.324,71.7H52.908Z" transform="translate(62.688 48.698)" fill="#eea194"/>
    </g>
    <g id="Group_347" data-name="Group 347" clip-path="url(#clip-path)">
      <path id="Path_777" data-name="Path 777" d="M48.8,72.383l7.066,37.1h7.066L52.333,71.5Z" transform="translate(74.303 48.015)" fill="#eea194"/>
    </g>
    <g id="Group_348" data-name="Group 348" clip-path="url(#clip-path)">
      <path id="Path_779" data-name="Path 779" d="M49.85,71.5,47.2,114.779l17.223-.883L55.591,71.5Z" transform="translate(68.837 48.015)" fill="#e36049"/>
    </g>
  </g>
  <path id="Path_781" data-name="Path 781" d="M79.606,62.617c-.883-.883-1.767-1.325-2.65-.883L53.991,74.1,50.9,99.714s18.99-12.365,25.173-13.69c5.3-.883,17.223,3.533,22.081,5.3A.846.846,0,0,0,98.6,90Z" transform="translate(173.886 210.306)" fill="#525798"/>
  <g id="Group_354" data-name="Group 354" transform="translate(92.409 196.246)">
    <g id="Group_350" data-name="Group 350" clip-path="url(#clip-path)">
      <path id="Path_782" data-name="Path 782" d="M164.031,69.09A14.547,14.547,0,0,0,149.457,55.4a15.013,15.013,0,0,0-13.69,9.274,36.564,36.564,0,0,0-26.056,25.173,10.161,10.161,0,0,0-7.066,7.508,21.406,21.406,0,0,0-20.756,21.2v.883a10.488,10.488,0,0,0-8.832,7.066c-11.482.883-20.756,9.274-20.756,19.431,0,11.041,10.157,19.873,22.964,19.873s22.964-8.832,22.964-19.873a17.72,17.72,0,0,0-1.325-6.624,26.064,26.064,0,0,0,6.183.883,20.777,20.777,0,0,0,18.99-11.482,37.067,37.067,0,0,0,22.964,7.949A36.564,36.564,0,0,0,181.7,100,35.625,35.625,0,0,0,164.031,69.09Z" transform="translate(86.26 -6.987)" fill="#e2e6f2"/>
    </g>
    <g id="Group_351" data-name="Group 351" clip-path="url(#clip-path)">
      <path id="Path_784" data-name="Path 784" d="M117.633,124.169a16.315,16.315,0,0,0-6.183,3.091,15.031,15.031,0,0,0-.883-6.183,21.685,21.685,0,0,0-15.9-15.457,37.95,37.95,0,0,0,1.767-24.289c-5.3-19.431-25.173-31.355-44.6-26.056A36.768,36.768,0,0,0,26.217,80.448c-7.066,2.208-11.482,10.157-9.274,17.223a14.082,14.082,0,0,0,12.807,10.6,36.493,36.493,0,0,0,30.914,18.99,9.57,9.57,0,0,0,9.274,4.858,21.162,21.162,0,0,0,26.056,14.574h.442a9.411,9.411,0,0,0,8.832,6.624c3.975,11.041,14.574,17.665,24.289,15.015,10.6-2.65,16.34-15.015,13.249-27.381C139.272,129.027,128.232,121.077,117.633,124.169Z" transform="translate(-36.484 -11.72)" fill="#e2e6f2"/>
    </g>
    <g id="Group_352" data-name="Group 352" clip-path="url(#clip-path)">
      <path id="Path_786" data-name="Path 786" d="M84.422,115.684a7.606,7.606,0,0,0-4.416-5.3v-.442A13.056,13.056,0,0,0,70.29,94.486a5.738,5.738,0,0,0-3.533-5.3A22.3,22.3,0,0,0,54.392,70.639a8.888,8.888,0,0,0-7.066-7.508c-4.416-.883-9.274,1.767-10.157,6.183a22.755,22.755,0,0,0-14.574,16.34c-2.65,11.924,5.3,23.848,17.223,26.5a20.547,20.547,0,0,0,14.574-1.767c1.325,4.416,4.858,8.391,9.716,9.274a8.735,8.735,0,0,0,4.416.883,10.912,10.912,0,0,0-1.766,3.975c-1.325,6.624,3.533,13.249,11.482,14.574,7.508,1.766,15.015-2.208,16.34-8.832C95.463,124.075,91.488,117.892,84.422,115.684Z" transform="translate(-16.963 18.846)" fill="#cfd5eb"/>
    </g>
    <g id="Group_353" data-name="Group 353" clip-path="url(#clip-path)">
      <path id="Path_788" data-name="Path 788" d="M139.449,88.542a21.325,21.325,0,0,0-10.157-19.431C119.134,62.486,105,65.136,98.378,75.294c-3.091,4.416-3.975,9.274-3.533,14.574a13.933,13.933,0,0,0-12.365,5.741,8.877,8.877,0,0,0-1.766,3.533,10.318,10.318,0,0,0-3.091-3.091c-5.741-3.533-13.69-1.325-17.665,5.3-4.416,6.624-3.091,14.574,2.208,18.548,5.3,3.533,12.365,1.767,16.782-3.975a6.612,6.612,0,0,0,6.624-2.208.433.433,0,0,1,.442.442c5.741,3.975,14.132,2.208,18.107-3.533a6.2,6.2,0,0,0,6.183-.883,22.705,22.705,0,0,0,21.64-4.858c3.533.883,7.508-.442,9.274-3.533A10.013,10.013,0,0,0,139.449,88.542Z" transform="translate(103.335 27.439)" fill="#cfd5eb"/>
    </g>
  </g>
  <path id="Path_790" data-name="Path 790" d="M108.465,57.572c-12.807,10.6-33.122,9.716-45.046-1.325C54.587,48.3,52.378,36.816,56.795,27.1,47.521,44.323,39.13,65.521,38.688,87.161c-1.767,54.32,17.223,141.761,42.837,142.644s49.02-85.233,50.345-139.553c.442-22.523-7.066-45.046-15.9-63.152C120.83,37.7,118.18,49.623,108.465,57.572Z" transform="translate(131.779 92.58)" fill="#e2e6f2"/>
  <path id="Path_791" data-name="Path 791" d="M44.608,41.8A11.709,11.709,0,0,0,42.4,44.45C43.283,44.008,43.725,43.125,44.608,41.8Z" transform="translate(144.848 142.799)" fill="#e8e6fc"/>
  <path id="Path_792" data-name="Path 792" d="M56.242,43.283c0-.442-.442-.442-.442-.883C55.8,42.842,55.8,42.842,56.242,43.283Z" transform="translate(190.626 144.848)" fill="#e8e6fc"/>
  <path id="Path_793" data-name="Path 793" d="M103.486,55.384a245.643,245.643,0,0,0-19.431-31.8c-4.858-6.624-11.924-6.624-16.782-.442A246.679,246.679,0,0,0,46.958,52.293a38.834,38.834,0,0,0-2.65,4.416c-4.416,9.716-2.208,21.2,6.624,29.147C63.3,96.9,83.171,97.78,95.978,87.181c9.716-7.949,12.365-20.315,7.508-30.472C103.927,56.267,103.486,55.826,103.486,55.384Z" transform="translate(143.824 63.413)" fill="#eea194"/>
  <path id="Path_794" data-name="Path 794" d="M66.948,77.249C59,77.249,49.724,75.483,43.1,69.3c6.624,9.716,7.949,15.9,22.964,16.34s17.223-6.183,24.289-15.9C81.963,75.924,75.339,77.249,66.948,77.249Z" transform="translate(147.24 236.745)" fill="#3e3f61"/>
  <path id="Path_795" data-name="Path 795" d="M87.228,18.5c-2.65,0-5.741,1.766-7.949,4.416C65.588,40.14,39.532,76.794,38.649,116.54c-.883,37.1,7.508,89.65,20.756,119.238,6.183,13.249,7.508,22.964,21.2,23.406C65.147,220.322,57.2,148.337,60.289,98.875,62.055,68.845,73.979,40.581,87.228,18.5Z" transform="translate(131.818 63.2)" fill="#cfd5eb"/>
  <path id="Path_796" data-name="Path 796" d="M43.642,70.183c0-.442-.442-.442-.442-.883h0c3.975,6.183,6.183,11.041,11.041,13.69C49.383,80.341,47.616,75.924,43.642,70.183Z" transform="translate(147.581 236.745)" fill="#e56539"/>
  <path id="Path_797" data-name="Path 797" d="M43.2,69.3c0,.442.442.442.442.883C47.616,75.924,49.383,80.341,53.8,82.99c2.208,1.325,5.3,2.208,9.716,2.65H64.84c-1.325-3.091-1.767-5.3-3.533-8.832C55.565,75.924,48.058,73.716,43.2,69.3Z" transform="translate(147.581 236.745)" fill="#35354b"/>
  <path id="Path_798" data-name="Path 798" d="M42.4,42.5Z" transform="translate(144.848 145.19)" fill="#e56539"/>
  <path id="Path_799" data-name="Path 799" d="M42.9,41.8Z" transform="translate(146.557 142.799)" fill="#e56539"/>
  <path id="Path_800" data-name="Path 800" d="M73.1,19.183h0c-.442,0-.883,0-.883.442h0c-.442,0-.442,0-.883.442h0c-.442,0-.442.442-.883.442h-.442c-.442,0-.442.442-.883.442a.433.433,0,0,0-.442.442l-.442.442-.442.442-.442.442c-.442.442-.442.883-.883.883-.442.442-.442.883-.883,1.325v.442c-.442.442-.442.883-.883,1.325h0c-.442.442-.442.883-.883,1.325h0c-.442.442-.883.883-.883,1.325v.442L61.62,31.107h0l-1.325,1.325h0A6.1,6.1,0,0,0,58.97,34.2h0c-.883,1.325-1.766,2.208-2.65,3.533h0c-.442.442-.883,1.325-1.325,1.766h0c-.442.442-.883,1.325-1.325,1.766h0c-.442.442-.883,1.325-1.325,1.766h0L49.7,47.006h0c-.442.883-.883,1.325-1.325,2.208h0c-.442.883-.883,1.325-1.325,2.208h0c-.442.883-.883,1.325-1.325,2.208v.442c-.442.883-.883,1.325-1.325,2.208h0c-3.975,9.274-2.208,19.873,5.3,27.822,3.975-24.731,14.132-47.254,25.173-65.8h0C73.985,19.183,73.544,19.183,73.1,19.183Z" transform="translate(144.618 62.517)" fill="#e36049"/>
  <g id="Group_359" data-name="Group 359" transform="translate(92.409 196.246)">
    <g id="Group_355" data-name="Group 355" clip-path="url(#clip-path)">
      <path id="Path_801" data-name="Path 801" d="M59.531,76.1a7.678,7.678,0,0,0-3.091,3.975L34.8,130.419c0,2.65,3.091,2.65,3.533,2.208,5.3-7.508,15.457-26.939,20.756-31.8,6.183-5.741,21.64-33.563,21.64-33.563L78.079,65.5Z" transform="translate(26.476 27.517)" fill="#3e3f61"/>
    </g>
    <g id="Group_356" data-name="Group 356" clip-path="url(#clip-path)">
      <path id="Path_803" data-name="Path 803" d="M60.272,76.5a7.678,7.678,0,0,0-3.091,3.975l-21.64,49.462c-.442.883,0,1.767.442.883,5.3-7.508,17.665-24.731,22.964-29.589C65.572,95.489,86.77,88.423,86.77,88.423L78.379,65.9Z" transform="translate(28.384 28.884)" fill="#525798"/>
    </g>
    <g id="Group_357" data-name="Group 357" clip-path="url(#clip-path)">
      <path id="Path_805" data-name="Path 805" d="M71.873,77.624,54.65,65.7,52,67.467s13.69,28.706,19.431,34.888c4.858,4.858,13.69,25.173,18.548,32.68a2.567,2.567,0,0,0,3.533-1.767L74.523,81.6Q73.2,78.286,71.873,77.624Z" transform="translate(85.235 28.201)" fill="#3e3f61"/>
    </g>
    <g id="Group_358" data-name="Group 358" clip-path="url(#clip-path)">
      <path id="Path_807" data-name="Path 807" d="M79.389,82c-.883-1.767-1.766-3.533-2.65-3.975L59.516,66.1,49.8,88.181s20.315,8.391,26.5,14.574c4.858,4.858,16.34,23.406,21.2,30.914.442.442.883,0,.442-.883Z" transform="translate(77.72 29.567)" fill="#525798"/>
    </g>
  </g>
  <path id="Path_809" data-name="Path 809" d="M88.165,72.44C78.449,78.182,70.5,91.43,70.5,102.471s7.949,15.457,17.665,10.157c9.716-5.741,17.665-18.99,17.665-30.03C105.83,71.116,97.881,66.7,88.165,72.44Z" transform="translate(240.845 238.904)" fill="url(#linear-gradient)"/>
  <path id="Path_810" data-name="Path 810" d="M70.6,100.389c0,4.416,1.325,7.949,3.533,10.157L86.94,70.8C77.666,76.983,70.6,89.79,70.6,100.389Z" transform="translate(241.186 241.87)" fill="url(#linear-gradient-2)"/>
  <path id="Path_811" data-name="Path 811" d="M85.49,71.983,71.8,113.937c2.65,1.325,6.183,1.325,9.716,0L95.206,71.1C92.556,69.775,89.023,69.775,85.49,71.983Z" transform="translate(245.286 239.804)" fill="url(#linear-gradient-3)"/>
  <path id="Path_812" data-name="Path 812" d="M87.749,70.6,74.5,111.229c9.716-5.741,17.223-18.99,17.223-30.03C92.165,75.9,90.4,72.367,87.749,70.6Z" transform="translate(254.51 241.186)" fill="url(#linear-gradient-4)"/>
  <path id="Path_813" data-name="Path 813" d="M74,113.237c.883-.442,1.325-.883,2.208-1.325h0L89.457,71.283A2.294,2.294,0,0,0,87.69,70.4Z" transform="translate(252.801 240.503)" fill="#fff"/>
  <path id="Path_814" data-name="Path 814" d="M84.207,71.583,71.4,111.329a6.1,6.1,0,0,0,1.766,1.325L86.857,70.7c-.442,0-.883.442-1.325.883A.828.828,0,0,0,84.207,71.583Z" transform="translate(243.919 241.528)" fill="#fff"/>
  <path id="Path_815" data-name="Path 815" d="M105.729,71.663c-11.041,6.183-20.315,20.756-22.081,34L65.1,116.267v9.274l18.548-10.6c1.767,11.041,12.807,17.223,23.848,10.6,12.365-7.066,23.848-26.056,23.848-40.188C131.344,70.78,118.095,64.6,105.729,71.663Z" transform="translate(222.397 234.823)" fill="#f3bcb3"/>
  <path id="Path_816" data-name="Path 816" d="M87.965,112.728c-9.716,5.741-17.665,1.325-17.665-10.157,0-11.041,7.949-24.731,17.665-30.03C97.681,66.8,105.63,71.216,105.63,82.7,105.63,93.738,97.681,107.429,87.965,112.728Z" transform="translate(240.161 239.246)" fill="#f3bcb3"/>
  <path id="Path_817" data-name="Path 817" d="M106.529,72.2c-11.041,6.183-20.315,20.756-22.081,34L65.9,116.806v9.274l18.548-10.6c1.767,11.041,11.041,14.574,22.081,8.391,12.365-7.066,22.523-24.289,22.523-38.863S118.895,65.136,106.529,72.2Z" transform="translate(225.13 236.052)" fill="url(#linear-gradient-5)"/>
  <path id="Path_818" data-name="Path 818" d="M88.765,113.228c-9.716,5.741-17.665,1.325-17.665-10.157,0-11.041,7.949-24.731,17.665-30.03C98.481,67.3,106.43,71.716,106.43,83.2,106.43,94.238,98.481,107.487,88.765,113.228Z" transform="translate(242.894 240.954)" fill="#e36049"/>
  <path id="Path_819" data-name="Path 819" d="M91.18,78.794,58.5,97.783c6.183-3.533,15.457,12.365,9.274,15.9l32.68-18.99C106.637,91.159,97.363,75.261,91.18,78.794Z" transform="translate(199.85 267.439)" fill="#3e3f61"/>
  <path id="Path_820" data-name="Path 820" d="M64.624,83.544C61.091,81.336,58,83.1,58,87.077s3.091,9.274,6.624,11.482,6.624.442,6.624-3.533C71.249,90.61,68.6,85.311,64.624,83.544Z" transform="translate(198.142 282.12)" fill="#525798"/>
  <path id="Path_821" data-name="Path 821" d="M98.379,22.523a60.3,60.3,0,0,0-8.391-10.157,60.4,60.4,0,0,0-10.6-7.949,44.57,44.57,0,0,0-6.624-3.091A17.721,17.721,0,0,0,66.14,0a14.106,14.106,0,0,0-6.183,1.325,20.76,20.76,0,0,0-5.3,3.975,21.07,21.07,0,0,0-3.533,7.066A39.761,39.761,0,0,0,49.8,23.406,46.759,46.759,0,0,0,52.008,37.1,47.509,47.509,0,0,0,57.749,49.9a51.063,51.063,0,0,0,8.832,11.041,48.705,48.705,0,0,0,11.041,8.391c5.741,3.091,10.157,4.858,13.69,4.858A10.257,10.257,0,0,0,99.7,70.218l-5.741-3.091-2.65,1.325a7.516,7.516,0,0,1-3.091.442,9.873,9.873,0,0,1-4.416-1.325c-1.767-.442-3.533-1.766-5.741-2.65a51.236,51.236,0,0,1-9.274-7.066,36.834,36.834,0,0,1-7.066-9.274,54.029,54.029,0,0,1-4.416-10.6A48.136,48.136,0,0,1,55.983,26.5c0-4.416.442-8.391,1.767-11.482,0-3.975,1.766-6.183,3.975-7.508a11.874,11.874,0,0,1,7.949-1.766,23.762,23.762,0,0,1,9.716,3.533A42,42,0,0,1,88.221,15.9a64.577,64.577,0,0,1,7.066,8.391A27.594,27.594,0,0,1,99.7,34.005a44.333,44.333,0,0,1,1.766,10.6,31.71,31.71,0,0,1-.883,7.508,10.354,10.354,0,0,1-2.208,4.416,7.118,7.118,0,0,1-3.091,1.766,10.394,10.394,0,0,1-3.533-.883,5.991,5.991,0,0,1-3.091-5.741v-.883l3.975-22.081-5.3-3.091a19.127,19.127,0,0,0-.442,2.208c0,.883-.442,1.325-.442,2.208a28.158,28.158,0,0,0-3.533-6.183,23.147,23.147,0,0,0-4.858-4.416,21.018,21.018,0,0,0-6.183-2.208,6.641,6.641,0,0,0-4.858,1.766,46.545,46.545,0,0,0-3.091,4.858A21.394,21.394,0,0,0,62.607,31.8a25.845,25.845,0,0,0,.883,5.741A30.662,30.662,0,0,0,65.7,43.279a19.608,19.608,0,0,0,3.533,4.858,46.932,46.932,0,0,0,4.858,3.975,10.531,10.531,0,0,0,5.3,1.766,6.132,6.132,0,0,0,4.416-2.208,11.561,11.561,0,0,0,2.65,5.741,23.147,23.147,0,0,0,4.858,4.416,10.692,10.692,0,0,0,5.741,1.766,6.641,6.641,0,0,0,4.858-1.766,15.271,15.271,0,0,0,3.091-5.3,27.507,27.507,0,0,0,1.325-9.274,41.03,41.03,0,0,0-2.208-12.807A37.311,37.311,0,0,0,98.379,22.523Z" transform="translate(170.129)" fill="#e36049"/>
  <path id="Path_822" data-name="Path 822" d="M70.34,19.324a2.655,2.655,0,0,1-.442,1.766l-.442,1.766c-.442,1.325-.442,2.65-.883,3.975s-.883,2.208-1.767,2.65a6.277,6.277,0,0,1-2.65.883,10.169,10.169,0,0,1-3.975-1.325,9.573,9.573,0,0,1-4.416-4.858A15.124,15.124,0,0,1,54,16.233a20.472,20.472,0,0,1,.883-6.183,6.968,6.968,0,0,1,2.208-3.533,2.731,2.731,0,0,1,3.091-.883,7.123,7.123,0,0,1,3.975,1.325,7.922,7.922,0,0,1,3.091,2.208,9.239,9.239,0,0,1,1.767,2.65c.442.883.883,2.208,1.325,3.091A7.516,7.516,0,0,1,70.782,18,3.419,3.419,0,0,1,70.34,19.324Z" transform="translate(184.477 18.655)" fill="#e36049"/>
  <path id="Path_823" data-name="Path 823" d="M97.779,22.823a60.3,60.3,0,0,0-8.391-10.157,60.4,60.4,0,0,0-10.6-7.949,44.57,44.57,0,0,0-6.624-3.091A17.721,17.721,0,0,0,65.54.3a14.106,14.106,0,0,0-6.183,1.325,20.76,20.76,0,0,0-5.3,3.975,21.07,21.07,0,0,0-3.533,7.066A39.761,39.761,0,0,0,49.2,23.706,46.759,46.759,0,0,0,51.408,37.4,47.509,47.509,0,0,0,57.149,50.2a51.063,51.063,0,0,0,8.832,11.041,48.706,48.706,0,0,0,11.041,8.391c5.741,3.091,10.157,4.858,13.69,4.858A10.257,10.257,0,0,0,99.1,70.518l-5.741-3.091-2.65,1.325a7.515,7.515,0,0,1-3.091.442,9.873,9.873,0,0,1-4.416-1.325c-1.767-.442-3.533-1.766-5.741-2.65a51.236,51.236,0,0,1-9.274-7.066,36.834,36.834,0,0,1-7.066-9.274,54.029,54.029,0,0,1-4.416-10.6A48.136,48.136,0,0,1,55.383,26.8c0-4.416.442-8.391,1.767-11.482a13.646,13.646,0,0,1,5.3-6.624A11.874,11.874,0,0,1,70.4,6.924c.883-.442,4.416.883,7.949,2.65A42,42,0,0,1,87.18,16.2a64.577,64.577,0,0,1,7.066,8.391,27.594,27.594,0,0,1,4.416,9.716,44.334,44.334,0,0,1,1.767,10.6,31.709,31.709,0,0,1-.883,7.508,10.353,10.353,0,0,1-2.208,4.416,7.118,7.118,0,0,1-3.091,1.766,10.394,10.394,0,0,1-3.533-.883,5.991,5.991,0,0,1-3.091-5.741v-.883L91.6,29.006l-5.3-3.091a19.127,19.127,0,0,0-.442,2.208c0,.883-.442,1.325-.442,2.208a28.157,28.157,0,0,0-3.533-6.183,23.147,23.147,0,0,0-4.858-4.416,21.018,21.018,0,0,0-6.183-2.208,6.641,6.641,0,0,0-4.858,1.766c-1.325.883-2.208,2.65-3.091,4.858A21.394,21.394,0,0,0,61.565,32.1a25.845,25.845,0,0,0,.883,5.741,30.662,30.662,0,0,0,2.208,5.741,19.608,19.608,0,0,0,3.533,4.858,46.932,46.932,0,0,0,4.858,3.975,10.531,10.531,0,0,0,5.3,1.766,6.132,6.132,0,0,0,4.416-2.208,11.561,11.561,0,0,0,2.65,5.741,23.147,23.147,0,0,0,4.858,4.416,10.692,10.692,0,0,0,5.741,1.766,6.641,6.641,0,0,0,4.858-1.766,15.271,15.271,0,0,0,3.091-5.3,27.508,27.508,0,0,0,1.325-9.274,41.031,41.031,0,0,0-2.208-12.807A70.437,70.437,0,0,0,97.779,22.823Z" transform="translate(168.079 1.025)" fill="#eea194"/>
  <path id="Path_824" data-name="Path 824" d="M69.4,19.624a2.655,2.655,0,0,0-.442,1.766v1.766c-.442,1.325-.442,2.65-.883,3.975s-.883,2.208-1.767,2.65a6.277,6.277,0,0,1-2.65.883,10.169,10.169,0,0,1-3.975-1.325,9.573,9.573,0,0,1-4.416-4.858A15.124,15.124,0,0,1,53.5,16.533a20.472,20.472,0,0,1,.883-6.183,6.968,6.968,0,0,1,2.208-3.533,2.731,2.731,0,0,1,3.091-.883,7.123,7.123,0,0,1,3.975,1.325,7.921,7.921,0,0,1,3.091,2.208,9.239,9.239,0,0,1,1.767,2.65c.442.883.883,2.208,1.325,3.091a7.516,7.516,0,0,1,.442,3.091C69.4,18.3,69.4,19.183,69.4,19.624Z" transform="translate(182.769 19.68)" fill="#eea194"/>
  <path id="Path_825" data-name="Path 825" d="M103.382,67.742a3.31,3.31,0,0,0-2.208-.442c-1.767,0-3.533,0-5.3,1.325a26.809,26.809,0,0,0-3.091,4.416c-1.767,1.767-5.3,2.65-5.741,5.3a3.628,3.628,0,0,0,.442,3.091,7.045,7.045,0,0,0,6.624.883c2.65-.883,4.858-3.091,7.066-4.858a19.608,19.608,0,0,1,4.858-3.533V72.6A5.541,5.541,0,0,0,103.382,67.742Z" transform="translate(296.729 229.913)" fill="#3e3f61"/>
  <path id="Path_826" data-name="Path 826" d="M93.624,76.949A7.206,7.206,0,0,1,87,76.066c.883,1.325,2.208,2.65,3.091,2.65,1.767.442,3.975.442,4.858-.442a73.324,73.324,0,0,1,9.274-7.066c.442-.442.883-.442.883-.883A1.622,1.622,0,0,0,105.548,69a19.607,19.607,0,0,0-4.858,3.533C98.924,73.858,96.716,76.066,93.624,76.949Z" transform="translate(297.212 235.72)" fill="#35354b"/>
  <path id="Path_827" data-name="Path 827" d="M111.022,52.841c-2.65,0-5.3.883-8.391,1.325a12.113,12.113,0,0,1-8.832-.442,24.5,24.5,0,0,1-3.533-2.65c-.883-.442-2.65-2.65-4.416-3.975-.883.442-1.325,1.767-1.767,4.416-.442,1.767-.442,3.975-.883,5.741.442.883,1.325,1.325,1.767,2.208A25.345,25.345,0,0,0,95.124,66.09a25.581,25.581,0,0,0,17.223.883,7.118,7.118,0,0,0,3.091-1.767,21.107,21.107,0,0,0-2.65-7.949A18.455,18.455,0,0,1,111.022,52.841Z" transform="translate(284.231 160.905)" fill="#4c5086"/>
  <path id="Path_828" data-name="Path 828" d="M95.815,33.642a3.373,3.373,0,0,0-2.208.883,1.942,1.942,0,0,1-2.208.442,1.622,1.622,0,0,1-.442-1.325,14.887,14.887,0,0,0-2.208-7.508c-.442-.883-1.767-2.208-3.091-1.766-.442,0-.883.442-1.325.883-.883.883-1.767,2.208-2.65,3.091a3.348,3.348,0,0,0-.883,1.766c0,.883.442,1.325.883,2.208s.883,2.208,1.325,3.091c1.767,0,3.975,2.65,4.858,3.975a6.431,6.431,0,0,1,2.65-3.975c.442.883-.883,2.208-.442,3.533L91.4,40.266h.442c.883-1.766,2.65-3.091,4.416-4.416.442-.442,1.325-.883.883-1.766A1.622,1.622,0,0,0,95.815,33.642Z" transform="translate(276.032 82.947)" fill="#f8b58b"/>
  <path id="Path_829" data-name="Path 829" d="M88.266,30.333c-.442-1.325.883-2.208.442-3.533a6.431,6.431,0,0,0-2.65,3.975C85.175,29.45,82.966,26.8,81.2,26.8c.442,1.766.883,3.975,1.325,6.183.442,2.65,3.091,3.091,5.3,3.091h.883l.442-.442c.442-.442.442-1.766.442-2.208a2.655,2.655,0,0,1,.442-1.766h-.442Z" transform="translate(277.398 91.555)" fill="#ea9d73"/>
  <path id="Path_830" data-name="Path 830" d="M118.448,31.4h-1.325c-.442.442-.883.883-.883,1.325-2.65,5.3-5.741,11.041-7.508,16.782-.883,2.208-1.325,4.858-2.65,6.624a9.617,9.617,0,0,1-3.975,3.091,23.088,23.088,0,0,1-7.066,2.65c-1.325.442-3.091.442-4.416,1.325a6.192,6.192,0,0,0-1.767,7.949c1.767,3.533,3.975,6.183,7.066,6.624,0-.883,0-1.325.442-1.767.442-1.767,2.208-3.533,3.533-4.858,4.858-4.416,11.482-7.066,15.9-11.924,4.858-5.741,5.741-14.132,9.716-20.315a11.708,11.708,0,0,1,2.208-2.65h0a1.542,1.542,0,0,0-.442-.883A11.118,11.118,0,0,0,118.448,31.4Z" transform="translate(301.094 107.27)" fill="#fff"/>
  <path id="Path_831" data-name="Path 831" d="M97.882,64.328h0a4.669,4.669,0,0,1-3.091-2.65,11.544,11.544,0,0,1-1.325-3.533c-1.767-7.066-3.533-14.574-3.533-22.081a51.06,51.06,0,0,1,.442-7.508,24.013,24.013,0,0,0-7.949,0c-.442,0-.883.442-1.325.883v.883c0,6.624.442,12.807.442,19.431,0,4.858,0,9.716,1.767,14.132A94.014,94.014,0,0,1,88.166,78.46c.442.883.883,1.766,1.325,1.766a1.622,1.622,0,0,0,1.325-.442c2.65-1.325,5.3-2.65,7.066-4.858a8.742,8.742,0,0,0,1.766-7.949C99.648,66.094,98.765,65.211,97.882,64.328Z" transform="translate(277.057 96.423)" fill="#fff"/>
  <path id="Path_832" data-name="Path 832" d="M111.694,43.617c-3.975-3.091-9.716-4.858-14.574-6.183-2.208-.442-4.858-1.325-7.508-.442s-6.183,3.975-6.624,6.624c-.883,3.975.883,9.274,1.325,13.249,1.325,8.391,3.091,17.223,1.325,25.614a7.515,7.515,0,0,0-.442,3.091A20,20,0,0,1,92.263,86.9c2.65.883,5.3,1.767,8.391,1.325,5.741-.442,10.157-6.183,11.924-11.924.442-1.325.883-3.091,1.325-4.416-.883-2.208,1.325-6.183.883-8.832,0-1.766-.883-3.091,0-4.858.442-1.767,2.208-3.091,4.416-3.533a14.516,14.516,0,0,0-3.091-7.066A39.816,39.816,0,0,1,111.694,43.617Z" transform="translate(282.676 125.084)" fill="#fff"/>
  <path id="Path_833" data-name="Path 833" d="M112.447,46.624c-.442,1.325-.883,3.533-.442,4.858,0,2.65-.883,7.066-.883,11.041,0,.442-.442,1.325-.442,1.767-1.325,5.741-5.741,11.041-11.924,11.924-2.65.442-5.741-.442-8.391-1.325-2.208-.442-4.858-1.325-7.066-1.325v1.325c.442,2.65,3.091,4.858,5.741,6.183a40.623,40.623,0,0,0,19.873,5.3c6.183,0,5.741-5.741,5.3-10.157-.883-6.624.442-12.365,1.767-18.99h0l.442-1.766c.442-6.624,3.533-11.482,2.65-15.457C116.863,40.883,113.33,44.858,112.447,46.624Z" transform="translate(284.573 136.649)" fill="#f6f7fc"/>
  <path id="Path_834" data-name="Path 834" d="M121.7,32.5h0a11.71,11.71,0,0,0-2.208,2.65c-3.975,6.624-4.858,14.574-9.716,20.315-4.416,5.3-10.6,7.508-15.9,11.924-1.325,1.325-3.091,3.091-3.533,4.858,0,.442-.442,1.325-.442,1.767a8.391,8.391,0,0,0,6.183-1.325,87.727,87.727,0,0,0,11.924-9.716A13.752,13.752,0,0,0,111.1,59a21.865,21.865,0,0,0,1.767-5.741c1.767-6.624,4.858-12.365,7.949-18.548A1.613,1.613,0,0,0,121.7,32.5Z" transform="translate(307.12 111.028)" fill="#f6f7fc"/>
  <path id="Path_835" data-name="Path 835" d="M85.308,28.742c-.442,0-.883-.442-1.767-.442a51.06,51.06,0,0,0-.442,7.508c0,7.508,1.767,15.015,3.533,22.081.442,1.325.442,2.208,1.325,3.091a5.937,5.937,0,0,0,3.091,2.65c-3.975-4.858-4.416-11.482-4.858-17.665C86.191,40.224,85.75,34.483,85.308,28.742Z" transform="translate(283.889 96.679)" fill="#f6f7fc"/>
  <path id="Path_836" data-name="Path 836" d="M99.079,40.05a8.877,8.877,0,0,0-3.533-1.767A13.066,13.066,0,0,0,91.13,37.4c-2.208,0-6.624.883-5.741,3.975.442,1.325,1.767,1.766,2.65,2.208a36.793,36.793,0,0,0,6.624,1.767h3.091c.883-.442,2.208-.883,2.208-2.208C100.846,42.258,100.4,40.933,99.079,40.05Z" transform="translate(291.316 127.767)" fill="#f6f7fc"/>
  <path id="Path_837" data-name="Path 837" d="M90.616,37.2a10.394,10.394,0,0,0-3.533.883.95.95,0,0,0-.883.883c0,.442,0,.442.442.883a5.4,5.4,0,0,0,3.975,1.325,8.187,8.187,0,0,0,3.091-.883c0-.883-.442-2.208-.442-3.091Z" transform="translate(294.48 127.084)" fill="#f8b58b"/>
  <path id="Path_838" data-name="Path 838" d="M88.163,41.841a8.32,8.32,0,0,1,3.533-.883,7.516,7.516,0,0,0,3.091-.442,12.227,12.227,0,0,1,.442-3.975c-.442,0-.442-.442-.883-.442H92.137c-.442,0-1.325.442-1.767.442h-.442a7.516,7.516,0,0,0-3.091.442c-1.325.442-.883,1.325-.883,2.65s.442,3.091,0,4.416v.442a.433.433,0,0,0,.442.442,8.023,8.023,0,0,0,8.832,0l.442-.442v-.883a8.188,8.188,0,0,1-3.091.883A7.123,7.123,0,0,1,88.6,43.166a1.542,1.542,0,0,1-.442-.883C87.721,42.283,87.721,42.283,88.163,41.841Z" transform="translate(293.4 123.326)" fill="#ea9d73"/>
  <path id="Path_839" data-name="Path 839" d="M95.434,63.827a15.024,15.024,0,0,0-4.416-.442c-.883,0-2.65-.442-3.533.442-.883.442-1.325,2.208-1.767,3.091l-2.65,2.65a4.409,4.409,0,0,0-2.208,1.767,4.629,4.629,0,0,0-.442,5.741h0c.883,0,2.208.883,3.091.883,1.767,0,3.091-1.325,4.416-2.208s2.65-2.208,3.975-3.091a18.456,18.456,0,0,1,4.416-1.767v-.442c0-1.325.442-3.091.442-4.416V64.71C96.317,64.269,95.876,63.827,95.434,63.827Z" transform="translate(271.997 216.162)" fill="#3e3f61"/>
  <path id="Path_840" data-name="Path 840" d="M87.308,70.441c-1.325.883-2.65,2.208-4.416,2.208a8.187,8.187,0,0,1-3.091-.883,3.713,3.713,0,0,0,4.858,1.767c1.325-.442,2.65-1.767,3.975-3.091a16.8,16.8,0,0,1,5.741-3.975c.442,0,.883-.442,1.325-.883V64.7a18.453,18.453,0,0,0-4.416,1.767A16.865,16.865,0,0,1,87.308,70.441Z" transform="translate(272.616 221.03)" fill="#35354b"/>
  <path id="Path_841" data-name="Path 841" d="M100.465,103.753c0-.883-.442-1.767-.442-2.65-.442-2.208-1.325-4.416-1.767-7.066a56.31,56.31,0,0,1-.442-8.832c0-10.157,1.767-21.2,1.767-31.355V51.2a11.07,11.07,0,0,1-3.091,1.767,18.254,18.254,0,0,1-8.391.883l.442.442a13.84,13.84,0,0,1,3.533,4.858c1.767,3.091,2.208,6.624,3.091,9.716a18.781,18.781,0,0,1,.883,4.858v6.183c-.442,6.624-.442,13.249,2.65,18.99.442.442.442.883.883,1.325h0c1.325,1.767,1.325,4.858,1.325,7.066s.442,4.858.442,7.066a18.116,18.116,0,0,1-.442,4.858c-.883,3.091-3.091,5.741-6.183,6.183-1.767.442-3.533.442-5.3.883,0,.442.442.883.883,1.325a5.435,5.435,0,0,0,4.416,2.208c2.65.442,5.741-.883,8.391-2.208-.442-6.183-.883-11.482-.883-17.223C100.907,108.169,100.907,105.961,100.465,103.753Z" transform="translate(300.97 174.911)" fill="#4c5086"/>
  <path id="Path_842" data-name="Path 842" d="M123.454,113.435c0-2.208,0-5.3-1.325-7.066h0c-.442-.442-.442-.883-.883-1.325-3.091-5.741-2.65-12.365-2.65-18.99V79.872a15.877,15.877,0,0,0-.883-4.858c-.883-3.533-1.325-6.624-3.091-9.716a33.705,33.705,0,0,0-3.533-4.858L110.647,60c-3.091,0-5.741-.883-8.832-1.767a22.658,22.658,0,0,1-10.157-6.624A9.632,9.632,0,0,1,89.891,49.4c-1.325,7.949-2.208,16.34-3.091,24.289-.442,5.3-1.325,11.041-1.767,16.34a74.106,74.106,0,0,1-3.091,17.223c-.442,1.767-1.325,3.975,0,5.3.442.442.883.883,1.325.883s.442.442.883.442h.442a13.615,13.615,0,0,0,4.416-.442,6.068,6.068,0,0,0,2.208-3.533c.442-1.325.883-7.949,2.208-10.6v-.442c1.767-5.741,0-11.924.442-18.107a26.064,26.064,0,0,1,.883-6.183c.442-3.091,1.325-5.741,1.767-8.832,0-.442,0-.883.442-.883a.95.95,0,0,1,.883.883c1.325,1.767,4.416,2.208,4.416,4.858v0c1.767,9.274,3.533,18.99,5.741,28.264a62.534,62.534,0,0,1,1.767,8.832,68.873,68.873,0,0,1,1.325,18.99,27.159,27.159,0,0,0,.442,6.183c1.766-.442,3.533-.442,5.3-.883a9.589,9.589,0,0,0,6.183-6.183,18.117,18.117,0,0,0,.442-4.858Z" transform="translate(277.54 168.762)" fill="#525798"/>
  <path id="Path_843" data-name="Path 843" d="M95.59,53.783c-.442-.442-.442-.883-.883-.883s-.442.442-.442.883c-.442,3.091-1.325,5.741-1.767,8.832a29.821,29.821,0,0,0-.883,6.183c-.442,6.183,1.325,12.365-.442,18.107v.442c-1.325,2.208-1.767,9.274-2.208,10.6a6.069,6.069,0,0,1-2.208,3.533c-1.325.883-3.091.442-4.416.442H81.9a36.792,36.792,0,0,0,6.624,1.766c1.325.442,1.325-.883,1.325-1.325,1.325-4.416,2.65-8.832,3.975-13.69A59.287,59.287,0,0,0,95.59,73.215V68.8a30.423,30.423,0,0,1,1.325-3.533c1.325-2.208,2.208-4.858,3.533-7.066v-.442C100.007,55.991,96.915,55.55,95.59,53.783Z" transform="translate(279.79 180.719)" fill="#4c5086"/>
  <path id="Path_844" data-name="Path 844" d="M92.6,63.875c-.442,0-.883-.442-1.767-.442-.442-.442-.883-.883-1.325-.883-2.208-1.325-1.325,1.767-.883,3.091a3.348,3.348,0,0,0,.883,1.767c.442.442.442.442.883.442a5.6,5.6,0,0,0,2.65.442c-.883-.883-1.767-2.208-1.325-3.091.442,0,1.325.442,1.767.442h.442V65.2Q93.264,63.875,92.6,63.875Z" transform="translate(300.885 212.582)" fill="#4c5086"/>
  <path id="Path_845" data-name="Path 845" d="M87.358,58.2h0c-1.325.442-1.767.442-3.091.883q-1.987,0,0,1.325c.442.442.883.442.883.883s-.883.442-1.325.442H82.5c.442.442.883.442,1.325.883s.883,0,1.767,0h.442c.442,0,.442.442.883.883.442-1.325,0-2.65,0-3.533C87.358,59.525,87.8,59.083,87.358,58.2Z" transform="translate(281.839 198.825)" fill="#4c5086"/>
  <path id="Path_846" data-name="Path 846" d="M91.641,34.966A30.172,30.172,0,0,0,85.9,33.2c0,.442.442.883.442,1.325,1.767,2.65,4.416,2.208,7.508,5.741,1.325,1.325,1.767,1.767,2.208,3.091v1.325H96.5a1.622,1.622,0,0,0,.442-1.325c0-2.208-.442-4.858-1.767-6.183A11.078,11.078,0,0,0,91.641,34.966Z" transform="translate(293.455 113.419)" fill="#cfd5eb"/>
  <path id="Path_847" data-name="Path 847" d="M97.665,37.908a.95.95,0,0,0-.883.883v.883c0,.883-1.325,1.325-1.767,1.325-1.325.442-2.65.442-3.975.883a7.516,7.516,0,0,1-3.091.442,5.6,5.6,0,0,1-2.65-.442l.442.442c.883.442,1.767.883,6.183,0,2.65-.442,3.975-.442,4.416-.883.883-.442,1.325-.883,2.208-1.325v-.442c.442-1.325,1.325-1.767,1.767-3.091,0-.442.442-.442,0-.883A6.492,6.492,0,0,1,97.665,37.908Z" transform="translate(291.405 121.96)" fill="#ea9d73"/>
  <path id="Path_848" data-name="Path 848" d="M100.015,32.883a9.385,9.385,0,0,0-7.066.883c.442,0,.442,0,.883.442,1.766.883,3.975,1.766,5.3,3.533a8.4,8.4,0,0,1,2.208,5.741,1.622,1.622,0,0,1-.442,1.325H99.574c-.442-.442-.442-.442-.442-.883l-1.325-2.65a9.239,9.239,0,0,0-2.65-1.767c-1.325-.442-2.65-.883-4.416-1.325a1.622,1.622,0,0,1-1.325-.442,45.817,45.817,0,0,0-1.767,4.416V42.6c-.442.442-.883.883-1.325.883s-.442.442-.883.442a1.542,1.542,0,0,0-.442.883c0,.442.883.883,1.325.883a19.126,19.126,0,0,0-.442,2.208,6.235,6.235,0,0,0-.442,3.975,6.352,6.352,0,0,0,.883,1.325,5.6,5.6,0,0,0,2.65.442c.883,0,2.208-.442,3.091-.442,1.325-.442,2.65-.442,3.975-.883.883,0,1.767-.442,1.767-1.325v-.883a.95.95,0,0,1,.883-.883,11.709,11.709,0,0,0,2.65-2.208V47.9c-.883.883-1.767,1.767-1.767,3.091v.442a19.207,19.207,0,0,1,3.091-2.65c2.208-2.208,3.091-3.533,3.533-5.3a6.739,6.739,0,0,0-.883-5.741C104.873,36.858,103.107,33.766,100.015,32.883Z" transform="translate(290.38 111.086)" fill="#f8b58b"/>
  <path id="Path_849" data-name="Path 849" d="M89.975,33.242c-.442,0-.442-.442-.883-.442H88.65A5.937,5.937,0,0,0,86,35.891c.442,0,.883.442,1.325.442,1.325.442,2.65.883,4.416,1.325.883.442,2.208.883,2.65,1.767l1.325,2.65a1.542,1.542,0,0,0,.442.883.828.828,0,0,0,1.325,0,1.622,1.622,0,0,0,.442-1.325,9.3,9.3,0,0,0-2.208-5.741C93.949,35.008,92.183,34.125,89.975,33.242Z" transform="translate(293.796 112.053)" fill="#ea9d73"/>
  <path id="Path_850" data-name="Path 850" d="M99.049,33.325A11.22,11.22,0,0,0,93.749,32c-3.091,0-7.066.883-7.949,3.533V37.3a14.676,14.676,0,0,1,5.741,1.767,6.068,6.068,0,0,1,3.533,2.208,6.559,6.559,0,0,1,1.767,6.183,1.622,1.622,0,0,1-.442,1.325h-.442c0,.883-.442,1.325-.442,2.208h.442c.883-.442,1.766.883,3.091,0,.883-.442,1.325-1.325,1.767-1.767.883-.883,1.325-1.766,2.208-2.65.883-.442,1.767-.883,2.65-.442a1.622,1.622,0,0,0,.442-1.325,8.011,8.011,0,0,0-1.325-5.741A13.459,13.459,0,0,0,99.049,33.325Z" transform="translate(293.113 109.32)" fill="#e2e6f2"/>
  <path id="Path_851" data-name="Path 851" d="M93.3,38.633c-.442.442-.883,1.325-1.767,1.767-1.325.883-1.767-.442-3.091,0H88v1.767c0,1.325,0,1.767.442,1.767.442.442,1.766-.442,6.624-5.741a14.09,14.09,0,0,0,2.65-3.091,5.6,5.6,0,0,0-2.65.442A19.2,19.2,0,0,1,93.3,38.633Z" transform="translate(300.629 119.91)" fill="#cfd5eb"/>
  <path id="Path_852" data-name="Path 852" d="M89.566,35.434A4.47,4.47,0,0,0,87.8,38.525c0,1.325.883,1.767,1.767.883a4.47,4.47,0,0,0,1.767-3.091C91.333,35.434,90.45,34.992,89.566,35.434Z" transform="translate(299.945 120.459)" fill="#f8b58b"/>
  <path id="Path_853" data-name="Path 853" d="M95.932,34.692c-2.65-1.325-6.183-3.091-8.832-2.208.883.883,2.65,1.325,3.533,2.208a9.261,9.261,0,0,1,3.533,4.858,4.594,4.594,0,0,0-2.65-5.741c1.766,0,3.091,1.767,3.975,3.533.442,1.325,1.325,2.65.883,4.416.442-.883.883-1.325.883-2.208a3.309,3.309,0,0,0-.442-2.208,4.771,4.771,0,0,1,1.325,3.091,5.226,5.226,0,0,0-.442-4.416A6.1,6.1,0,0,0,95.932,34.692Z" transform="translate(297.554 110.161)" fill="#cfd5eb"/>
  <path id="Path_854" data-name="Path 854" d="M88.442,35.942c-.442.883.883,1.325,0,1.767A.433.433,0,0,0,88,38.15v.442h.442l.883-.883a1.622,1.622,0,0,0,.442-1.325C89.767,35.058,88.883,35.5,88.442,35.942Z" transform="translate(300.629 121.276)" fill="#ea9d73"/>
  <path id="Path_855" data-name="Path 855" d="M83,28.8Z" transform="translate(283.548 98.388)" fill="#f8b58b"/>
  <g id="Group_360" data-name="Group 360" transform="translate(421.568 123.173)">
    <path id="Path_856" data-name="Path 856" d="M109.332,29.7c0-.442-.442-.883-.442-1.325-.883-.883-2.208-.442-3.091.442a11.3,11.3,0,0,0-4.416,5.741c0,.442-.442.883-.883,1.325-.883,0-1.325-.442-1.767-1.325-.442-.442-1.325-1.325-1.767-1.325s-.883-.442-1.325,0,0,1.325.442,1.766a10.527,10.527,0,0,1,2.65,4.858c.883.442,2.208,1.325,3.091,1.325h1.325a4.409,4.409,0,0,0,2.208-1.766,17.671,17.671,0,0,1,5.3-4.416c.442,0,.442-.442.883-.442a1.622,1.622,0,0,0-.442-1.325A13.224,13.224,0,0,1,109.332,29.7Z" transform="translate(-95.459 -27.891)" fill="#f8b58b"/>
    <path id="Path_857" data-name="Path 857" d="M102.724,34.258c-.883.883-1.325,1.766-2.208,1.766H99.191c-.442,0-1.767-.883-3.091-1.325v2.65a30.107,30.107,0,0,1,3.091,2.208,2.294,2.294,0,0,0,1.767.883c.442-.442.883-.442,1.325-1.325,1.767-2.65,3.091-5.3,5.3-7.508.442-.442,1.325-.883,1.325-1.766V29.4c-.442,0-.442.442-.883.442A17.671,17.671,0,0,0,102.724,34.258Z" transform="translate(-93.267 -22.736)" fill="#ea9d73"/>
    <path id="Path_858" data-name="Path 858" d="M99.591,29.1h0c-.883.442-.883,1.766-1.767,2.65-.442.442-1.325.442-1.325.883,0,0,1.325.883,1.325,1.325a.433.433,0,0,0,.442.442c.442-.883.883-2.208,1.325-3.091v-.883c.442-.442,0-.883,0-1.325Z" transform="translate(-91.901 -23.761)" fill="#ea9d73"/>
  </g>
  <path id="Path_859" data-name="Path 859" d="M32.813,93.436c-2.208-.883-7.508.883-13.69-8.391-1.325-1.766-6.183,4.416-7.508,4.858s-2.65,6.624-3.091,7.508,0,2.65,1.766,3.533a9.725,9.725,0,0,0,3.533.442,6.277,6.277,0,0,0,2.65-.883c3.533-.883,8.832.883,12.807.442,1.766,0,7.949-2.208,6.624-3.975A4.768,4.768,0,0,0,32.813,93.436Z" transform="translate(28.573 289.452)" fill="#3e3f61"/>
  <path id="Path_860" data-name="Path 860" d="M20.369,86.211c-1.766,0-3.533,1.767-9.716-4.858-1.325-1.325-3.533,4.416-4.416,4.858-1.325.442-2.208,6.624-2.65,7.508s.442,2.208,2.208,2.65c.883.442,2.208,0,3.091-.442s1.325-.883,2.208-1.325c3.091-1.325,7.508-.883,10.6-1.767,1.325-.442,4.858-2.65,4.416-4.416C25.227,87.094,22.135,86.211,20.369,86.211Z" transform="translate(11.87 277.245)" fill="#3e3f61"/>
  <path id="Path_861" data-name="Path 861" d="M20.371,86.2c-1.766,0-4.416.883-10.157-4.858-1.325-1.325-4.858,4.858-5.741,5.3s-.442,5.3-.883,6.183.442,2.208,1.766,2.208c.883.442,1.766,0,2.65-.442a3.374,3.374,0,0,0,2.208-.883c2.65-1.325,6.624-.883,9.716-1.767,1.325-.442,5.741-3.091,4.858-4.416A6.594,6.594,0,0,0,20.371,86.2Z" transform="translate(11.868 277.255)" fill="#525798"/>
  <path id="Path_862" data-name="Path 862" d="M29.921,93.677c-2.208-.442-5.3,0-11.041-8.832-1.325-1.767-6.624,4.416-7.949,4.858S9.165,95.885,8.723,97.21c-.442.883,0,2.65,1.766,3.533a7.515,7.515,0,0,0,3.091.442,6.277,6.277,0,0,0,2.65-.883c3.533-.883,8.391.883,12.365.442,1.766,0,7.508-2.208,6.624-3.975S32.129,94.119,29.921,93.677Z" transform="translate(29.256 288.769)" fill="#525798"/>
  <path id="Path_863" data-name="Path 863" d="M41.238,88.9C38.588,81.39,31.08,76.974,23.573,73.882c-2.65-1.325-5.741-2.65-7.949-4.416A16.167,16.167,0,0,1,11.207,62.4c-4.416,17.223,1.766,37.538-2.65,51.228C4.141,128.644,2.817,144.984,3.7,152.05A24.9,24.9,0,0,0,9,150.283a9.652,9.652,0,0,0,2.208-1.325,9.654,9.654,0,0,1,1.325-2.208c1.766-5.3,3.091-10.6,4.858-15.9.883-2.65,1.766-5.741.883-8.391-.883-3.533-4.416-5.741-7.949-7.508a9.8,9.8,0,0,1,4.858-2.208c0-.883-1.325-1.325-1.766-1.325-.883-.442-1.766-.883-1.766-1.767,1.325-.442,3.091.883,4.416,1.767s3.091,1.767,4.416.442a3.245,3.245,0,0,0,.883-2.65c0-3.975,0-7.949-1.766-11.482a36.836,36.836,0,0,0-3.533-5.3c-1.325-2.208-5.741-13.249-2.208-15.015A12.227,12.227,0,0,1,14.3,81.39a14.924,14.924,0,0,0,2.65,5.3c1.766,2.65,3.975,4.858,5.3,7.949,1.766,3.533,2.208,7.949,2.65,11.924v-.883c.883,26.939,1.325,56.969,1.325,62.711h3.533c3.091,0,6.183-.442,7.949-3.091a6.563,6.563,0,0,0,.883-3.975c.442-5.741.883-11.041,1.325-16.782a19.448,19.448,0,0,1,.883-7.066c0-.442.883-1.325,1.766-2.65-.883-4.416,0-9.716.883-14.574.883-7.508.442-15.457-.442-23.406A65.826,65.826,0,0,0,41.238,88.9Z" transform="translate(11.757 213.173)" fill="#a7b2de"/>
  <path id="Path_864" data-name="Path 864" d="M16.749,75.074a14.925,14.925,0,0,1-2.65-5.3c-.442-1.325,0-3.091-.442-3.975-3.975,1.325.883,12.807,2.208,15.015.883,1.767,2.65,3.533,3.533,5.3,1.766,3.533,1.766,7.508,1.766,11.482,0,.883,0,2.208-.883,2.65-1.325,1.325-3.091.442-4.416-.442s-2.65-2.208-4.416-1.767c0,.883.883,1.325,1.766,1.767s1.766.442,1.766,1.325a16.325,16.325,0,0,0-4.858,2.208c3.533,1.767,7.066,3.975,7.949,7.508.883,2.65,0,5.741-.883,8.391-1.766,5.3-3.091,10.6-4.858,15.9-.442.883-.442,1.767-1.325,2.208A9.654,9.654,0,0,1,8.8,138.668a24.9,24.9,0,0,1-5.3,1.766h0c3.975,2.208,11.041-3.091,11.041-3.091l9.274-35.33,1.325-7.066c-.442-3.975-.883-8.391-2.65-11.924C20.723,79.932,18.515,77.724,16.749,75.074Z" transform="translate(11.957 224.788)" fill="#6169a3"/>
  <path id="Path_865" data-name="Path 865" d="M34.689,65.475a29.2,29.2,0,0,1-11.041,3.091,21.961,21.961,0,0,1-9.274-.442C9.958,66.8,8.191,64.15,5.983,61.5A12.9,12.9,0,0,0,5.1,65.475a19.232,19.232,0,0,0,4.416,7.066c2.208,2.208,5.3,3.091,7.949,4.416,7.508,3.091,15.015,7.508,17.665,15.015a27.73,27.73,0,0,1,1.325,8.391c.442,7.949,1.325,15.457.442,23.406-.442,3.533-.883,7.508-1.325,10.157,0,.442-.442.883-.442,1.325a11.708,11.708,0,0,1-2.208,2.65c-1.766,1.325-3.533,2.208-5.3,3.533-.442,0-.442.442-.442.883h.442c1.325,0,2.208-.442,3.533-.442H31.6a1.343,1.343,0,0,1,0,1.766,11.708,11.708,0,0,1-2.208,2.65,2.934,2.934,0,0,0-1.766,2.208,3.373,3.373,0,0,0,2.208-.883,24.271,24.271,0,0,0,3.975-3.091v3.533c-.442,5.741-.883,11.041-1.325,16.782a6.563,6.563,0,0,1-.883,3.975c-1.325,2.65-4.858,2.65-7.949,3.091H20.557c3.533,2.65,12.807.442,13.249-3.533.442-6.183.883-16.782,2.208-28.264a10.975,10.975,0,0,0,.442-3.533c.442-4.416,1.325-8.832,1.766-12.807,4.858-27.381,2.65-55.645,2.65-55.645Z" transform="translate(17.423 210.099)" fill="#6169a3"/>
  <path id="Path_866" data-name="Path 866" d="M27.4,51.45a13.441,13.441,0,0,0-3.533,3.533c-.442.442-.442.883-.883.883-.883.442-2.65-.442-3.533-1.325,0,.883-.442,1.767,0,2.65a6.958,6.958,0,0,0,3.091,3.091c1.766.883,3.091-.883,4.416-2.208a36.839,36.839,0,0,0,3.533-5.3L31.817,48.8h0A38.836,38.836,0,0,0,27.4,51.45Z" transform="translate(65.782 166.712)" fill="#f8b58b"/>
  <path id="Path_867" data-name="Path 867" d="M30.341,47.9c-.442,0-.442.442-.883.442a97,97,0,0,0-7.949,6.183c-.442.442-1.325.883-1.766,1.325a1.622,1.622,0,0,1-.442,1.325v.442c.883.883,2.65,1.767,3.533,1.325a.95.95,0,0,0,.883-.883,13.441,13.441,0,0,1,3.533-3.533l3.975-2.65h0V50.108C30.782,49.225,30.782,48.342,30.341,47.9Z" transform="translate(65.933 163.638)" fill="#ea9d73"/>
  <path id="Path_868" data-name="Path 868" d="M24,51.816c-.883-.883-1.766-1.767-3.091-1.325-.442,0-1.325.883-1.766,1.325l-.442.442c1.325,2.65,3.533,4.416,5.741,6.183,0-.442.442-.442.442-.883a3.373,3.373,0,0,0,.883-2.208C26.208,54.024,24.883,52.7,24,51.816Z" transform="translate(63.884 172.087)" fill="#a7b2de"/>
  <path id="Path_869" data-name="Path 869" d="M28.464,52.208c-6.624-3.091-7.066,2.208-4.858,7.508,1.325,3.533,3.975,6.624,5.3,10.157,2.65,6.183,2.208,13.249,1.325,19.873-.442,3.533-.883,7.066-3.091,9.274a10.975,10.975,0,0,1-8.832,3.091c-3.091,0-6.183-1.325-9.274-2.65A13.651,13.651,0,0,0,5.5,98.579a6.277,6.277,0,0,0,.883,2.65c.883,2.208,2.65,3.533,4.858,4.858a26.062,26.062,0,0,0,29.147-2.208c1.325-14.574,0-25.614,1.325-41.513C39.063,57.949,32.881,54.416,28.464,52.208Z" transform="translate(18.789 175.228)" fill="#e36049"/>
  <path id="Path_870" data-name="Path 870" d="M49.2,59.543c-1.325-.883-2.65-2.208-3.975-1.767a7.753,7.753,0,0,0-2.208,1.767c-3.091,3.091-5.741,6.183-8.832,9.716-3.091-3.975-3.975-5.3-10.157-13.69-1.766-2.208-8.391-8.832-11.482-6.624-2.65,1.767-1.325,7.949-.883,10.6a18.457,18.457,0,0,0,1.766,4.416,56.362,56.362,0,0,1,6.624,5.3c3.091,3.091,6.183,6.624,9.274,9.716a9.239,9.239,0,0,0,2.65,1.767c2.208.442,4.416-.883,6.624-2.208,2.65-2.208,5.3-4.416,7.066-7.508,1.325-2.208,3.091-4.416,5.3-5.3,0-.442.442-.442.442-.883C52.289,62.192,50.964,60.868,49.2,59.543Z" transform="translate(37.361 165.685)" fill="#eea194"/>
  <path id="Path_871" data-name="Path 871" d="M43.939,58.966a56.873,56.873,0,0,1-7.066,7.508c-1.766,1.325-4.416,2.65-6.624,2.208a9.239,9.239,0,0,1-2.65-1.767c-3.533-3.091-6.183-6.624-9.274-9.716-.883-.883-3.975-3.975-6.624-5.3A60.622,60.622,0,0,0,28.04,73.1a4.009,4.009,0,0,0,3.091,1.325c1.325,0,2.208-.883,3.533-1.766C40.406,67.8,44.822,61.616,48.8,55.433a3.348,3.348,0,0,0,.883-1.767C47.03,54.55,45.263,56.758,43.939,58.966Z" transform="translate(39.97 177.303)" fill="#e36049"/>
  <path id="Path_872" data-name="Path 872" d="M39.106,45.134a4.5,4.5,0,0,0-3.975.883L15.7,61.474c0,1.325,0,2.208,1.325,2.208L30.274,68.54a4.5,4.5,0,0,0,3.975-.883L52.8,51.758c.883-.883.883-.883.442-2.65Z" transform="translate(53.635 153.597)" fill="#525798"/>
  <path id="Path_873" data-name="Path 873" d="M51.4,49.592,38.152,44.734a4.5,4.5,0,0,0-3.975.883l-8.832,7.508L23.578,54.45v.883l-3.091,2.65-3.975,3.533c-.883.883-.883,1.767,0,2.208l13.249,4.858a4.5,4.5,0,0,0,3.975-.883l10.6-8.832,3.091-2.65.883-.442,1.766-1.325,2.208-2.208C52.726,50.917,52.726,50.033,51.4,49.592Z" transform="translate(54.147 152.23)" fill="#e2e6f2"/>
  <path id="Path_874" data-name="Path 874" d="M51.4,49.458,38.152,44.6h-.883a8.187,8.187,0,0,0-3.091.883l-8.832,7.508-1.766,1.325V55.2l-3.091,2.65-3.975,3.533c-.883.883-.883,1.767,0,2.208l13.249,4.858h.883a8.187,8.187,0,0,0,3.091-.883l10.6-8.832,3.091-2.65.883-.442,1.766-1.325,2.208-2.208C52.726,50.783,52.726,49.9,51.4,49.458Z" transform="translate(54.147 152.364)" fill="#a7b2de"/>
  <path id="Path_875" data-name="Path 875" d="M46.772,50.841l-1.766,1.325-.883.442L41.473,55.7l-10.6,8.832a3.348,3.348,0,0,1-1.766.883h-.442L16.3,61l3.975-3.091,3.091-2.65.883-.442,1.766-1.325,8.832-7.508a3.348,3.348,0,0,1,1.766-.883h.442l12.365,4.416Z" transform="translate(55.685 154.072)" fill="#a7b2de"/>
  <path id="Path_876" data-name="Path 876" d="M23.068,52.441c-1.766,0-3.091.442-4.858,0-1.325-.442-3.091-.883-3.975-2.208l-1.325-2.65c-.883-.883-1.766-.883-3.091-.883a16.389,16.389,0,0,0-3.975.883c-2.208,3.091-2.208,8.391-1.766,11.482A38.774,38.774,0,0,0,7.17,69.223c3.975,12.807,3.975,26.5,3.533,39.746v5.3a8.432,8.432,0,0,1,3.533,1.325c3.091,1.325,6.183,2.65,9.274,2.65s6.624-.883,8.832-3.091c2.208-2.65,2.65-6.183,3.091-9.274.883-6.624,1.325-13.69-1.325-19.873-1.325-3.533-3.975-6.624-5.3-10.157-2.208-5.3-1.766-11.041,4.858-7.508a56.86,56.86,0,0,1,13.249,9.716,42.846,42.846,0,0,1,.442-7.508c.442-4.416.442-7.949-2.208-11.482A32.774,32.774,0,0,0,23.068,52.441Z" transform="translate(13.145 159.538)" fill="#eea194"/>
  <path id="Path_877" data-name="Path 877" d="M20.6,45.6a13.225,13.225,0,0,0,4.416,1.767,15.691,15.691,0,0,0,4.416.883,13.225,13.225,0,0,0-4.416-1.767A15.69,15.69,0,0,1,20.6,45.6Z" transform="translate(70.374 155.78)" fill="#525798"/>
  <path id="Path_878" data-name="Path 878" d="M19.7,46.3a13.225,13.225,0,0,0,4.416,1.767,15.691,15.691,0,0,0,4.416.883,13.225,13.225,0,0,0-4.416-1.767A13.066,13.066,0,0,0,19.7,46.3Z" transform="translate(67.3 158.172)" fill="#525798"/>
  <path id="Path_879" data-name="Path 879" d="M18.9,47a13.225,13.225,0,0,0,4.416,1.766,15.691,15.691,0,0,0,4.416.883,13.225,13.225,0,0,0-4.416-1.766A15.69,15.69,0,0,0,18.9,47Z" transform="translate(64.567 160.563)" fill="#525798"/>
  <path id="Path_880" data-name="Path 880" d="M18,47.6a13.225,13.225,0,0,0,4.416,1.767,15.691,15.691,0,0,0,4.416.883,13.225,13.225,0,0,0-4.416-1.767A19.435,19.435,0,0,1,18,47.6Z" transform="translate(61.492 162.613)" fill="#525798"/>
  <path id="Path_881" data-name="Path 881" d="M17,49.283l1.766.442.883-.883L18.325,48.4Z" transform="translate(58.076 165.346)" fill="#525798"/>
  <path id="Path_882" data-name="Path 882" d="M17.5,49.483l1.766.442.883-.883L18.825,48.6Z" transform="translate(59.784 166.029)" fill="#525798"/>
  <path id="Path_883" data-name="Path 883" d="M18,49.683l1.766.442.883-.883L19.325,48.8Z" transform="translate(61.492 166.712)" fill="#525798"/>
  <path id="Path_884" data-name="Path 884" d="M22.333,48.6H21.008l-1.325.883H21.45L18.8,51.691l1.325.442L24.1,49.042l-.883-.442Z" transform="translate(64.225 166.029)" fill="#525798"/>
  <path id="Path_885" data-name="Path 885" d="M21.082,48.176c-4.858-1.325-11.482-3.533-15.9,0-.442.442-.883.442-.883.883a10.547,10.547,0,0,0,3.975-.883,4.2,4.2,0,0,1,3.091.883c.883.883.883,1.767,1.325,2.65a5.27,5.27,0,0,0,3.975,2.208c1.325.442,3.091,0,4.858,0A37.056,37.056,0,0,1,44.046,60.1l-.442-.442C39.188,54.359,27.706,49.942,21.082,48.176Z" transform="translate(14.69 158.062)" fill="#e36049"/>
  <path id="Path_886" data-name="Path 886" d="M17.232,41.591c-1.325-.442-3.091.442-3.975,1.325a3.448,3.448,0,0,0-1.766,1.767c-.883.883-1.766,1.325-2.208,2.208l-.883.883A1.622,1.622,0,0,0,8.842,49.1h.883a2.655,2.655,0,0,0,1.766-.442c.442-.442.883-.442,1.325-.883a11.579,11.579,0,0,1,3.975-2.208c.442,0,1.325-.883,2.208-1.325a19.126,19.126,0,0,0-.442-2.208A1.934,1.934,0,0,1,17.232,41.591Z" transform="translate(28.696 141.683)" fill="#ea9d73"/>
  <path id="Path_887" data-name="Path 887" d="M28.464,54.334c0-.442-.442-1.325-.442-1.767,0-1.325-.442-2.208-.442-3.091A9.653,9.653,0,0,1,25.373,50.8,17.9,17.9,0,0,0,21.4,53.009l-.883.883c-.442.442-.883.442-1.766.442h-.883c-.442,0-.442-.883-.442-1.325a.95.95,0,0,1,.883-.883c.883-.883,1.325-1.767,2.208-2.208l1.766-1.767c.883-.883,2.65-1.767,3.975-1.325-1.325-3.975-3.975-5.741-7.949-6.624C12.566,38.436,2.85,45.943,6.383,53.009a21.247,21.247,0,0,0,3.975,4.858,46.774,46.774,0,0,0,5.3,4.416h0V60.959c0-.442,0-.883.442-.883.442-.883.442-2.65,1.766-2.208a6.491,6.491,0,0,1,2.208,2.65A13.223,13.223,0,0,0,21.84,64.05a19.207,19.207,0,0,0,3.091,2.65c.442,0,.442.442.883.442h.442c.883-.442,1.325-.883,1.325-1.767a19.6,19.6,0,0,0,.883-5.741c.442,0,.442-.442.883-.442.442-.442.883-.442.883-.883s0-.442-.442-.883A21.531,21.531,0,0,0,28.464,54.334Z" transform="translate(19.231 136.447)" fill="#f8b58b"/>
  <path id="Path_888" data-name="Path 888" d="M14.649,47.766A5.6,5.6,0,0,0,12,47.325c-1.766-.442-3.533-.442-5.3-1.325v3.091a13.58,13.58,0,0,0,6.624,2.65,15.024,15.024,0,0,0,4.416-.442c0-.442-.442-.883-.442-1.325A5.887,5.887,0,0,0,14.649,47.766Z" transform="translate(22.889 157.147)" fill="#f8b58b"/>
  <path id="Path_889" data-name="Path 889" d="M17.541,48.916c-1.325-1.325-3.091-1.325-4.416-2.208-1.325-.442-2.65-1.325-3.975-1.766-.442,0-1.766-.442-2.65-.442a15.024,15.024,0,0,1,.442,4.416v1.767l5.3,1.325c.883,0,1.766.442,2.65.442A4.409,4.409,0,0,1,17.1,54.216a1.622,1.622,0,0,1,.442,1.325c.442,0,.883-.442,1.325-.442,0-.883-.883-3.533-.883-6.183C18.424,49.358,17.982,48.916,17.541,48.916Z" transform="translate(22.206 152.023)" fill="#ea9d73"/>
  <path id="Path_890" data-name="Path 890" d="M13.741,50.237A8.877,8.877,0,0,1,11.975,46.7a6.491,6.491,0,0,0-2.208-2.65C8.442,43.612,8.442,45.379,8,46.262c0,.442,0,.883,0,.883V48.47H8a24.55,24.55,0,0,0,7.508,3.975c.442,0,1.325.442,2.208,0A1.542,1.542,0,0,0,16.832,52C15.508,52,14.624,51.12,13.741,50.237Z" transform="translate(27.33 150.26)" fill="#ea9d73"/>
  <path id="Path_891" data-name="Path 891" d="M20.832,38.7c-1.325,0-2.65,5.3-3.975,5.3-2.208,0-4.416-.883-6.624-.883a8.61,8.61,0,0,0-3.533.442H8.025a20,20,0,0,1,7.066,1.325c1.325.442,2.65.883,3.533.442,1.325-.442,1.766-1.767,2.65-2.208,2.208-1.325,5.3.442,7.949.883h.442c.442-.883.442-1.325,0-1.767C28.781,41.35,22.6,38.7,20.832,38.7Z" transform="translate(22.889 132.208)" fill="#3e3f61"/>
  <path id="Path_892" data-name="Path 892" d="M28.665,40.069c-.883.442-1.766,1.767-2.65,2.208a4.692,4.692,0,0,1-3.533-.442,18.308,18.308,0,0,0-7.066-1.325H14.092a12.137,12.137,0,0,0-7.066,4.416c-1.766,2.65-3.091,6.183-2.208,9.274.442,2.65,3.533,5.3,5.3,7.508.442.442.442.883.883,1.325.442-.442.442-.442.883-.442s1.325.883,1.766.883a6.277,6.277,0,0,1-.883-2.65c.883.442,1.325,1.325,1.766,2.65.442.883,1.325,2.208,2.208,2.208,0-1.325-.442-2.65-.442-3.975v-.442c0-.442.442-.442.883,0,.442,0,.442.442.442.883.442,1.325.442,2.208,1.325,3.091a.433.433,0,0,0,.442.442,1.622,1.622,0,0,0,1.325-.442c1.325-1.325,1.766-3.533,1.766-5.741s-.442-4.416.883-6.183a5.618,5.618,0,0,1,3.975-3.091c.883-.442,3.533-1.325,4.416-.883.883-.442,1.325-1.325,2.208-1.767.883-1.325,3.533-3.975,4.416-6.183h-.442C33.965,40.51,30.873,38.744,28.665,40.069Z" transform="translate(15.497 135.256)" fill="#525798"/>
  <path id="Path_893" data-name="Path 893" d="M22.14,43.025a7.048,7.048,0,0,0-3.975,3.091c-.883,1.767-.883,3.975-.883,6.183s0,4.416-1.766,5.741a1.622,1.622,0,0,1-1.325.442.433.433,0,0,1-.442-.442c-.442-.883-.883-2.208-1.325-3.091,0-.442,0-.442-.442-.883H11.1v.442c0,1.325.442,2.65.442,3.975-.883,0-1.766-.883-2.208-2.208-.442-.883-.883-2.208-1.766-2.65a6.277,6.277,0,0,0,.883,2.65,3.348,3.348,0,0,1-1.766-.883c-.442,0-.883,0-.883.442,1.325,1.325,2.208,3.091,3.975,3.975,2.65.883,5.3.883,7.066-.883,2.65-2.65.442-7.508,2.208-11.041.883-1.767,2.65-3.091,4.416-4.416.883-.442,2.208-1.325,3.091-1.767A16.825,16.825,0,0,0,22.14,43.025Z" transform="translate(19.814 142.457)" fill="#3e3f61"/>
  <path id="Path_894" data-name="Path 894" d="M10.75,43.275A1.62,1.62,0,0,0,8.1,44.6a5.857,5.857,0,0,0,2.65,4.416,1.62,1.62,0,0,0,2.65-1.325C12.958,46.366,12.075,44.158,10.75,43.275Z" transform="translate(27.672 146.623)" fill="#f8b58b"/>
  <path id="Path_895" data-name="Path 895" d="M9.725,45.477l-.442-.442a.433.433,0,0,1,.442-.442c.442-.442-.883-1.767-1.325-1.325v.442c0,.442,0,.883.442.883.442.442.442.883.883,1.325a.433.433,0,0,0,.442.442h.442a.433.433,0,0,0,.442-.442c0-.442,0-.442-.442-.883C10.166,45.918,10.166,45.918,9.725,45.477Z" transform="translate(28.696 147.513)" fill="#ea9d73"/>
  <path id="Path_896" data-name="Path 896" d="M7.55,40.7A12.035,12.035,0,0,0,4.9,46v1.767c0,.442.442.883.442,1.325A9.027,9.027,0,0,0,7.55,53.065a34.09,34.09,0,0,1-.883-6.624,6.548,6.548,0,0,1,.442-3.091C7.108,42.466,7.991,41.583,7.55,40.7Z" transform="translate(16.74 139.041)" fill="#3e3f61"/>
  <path id="Path_897" data-name="Path 897" d="M10.231,44.655a2.934,2.934,0,0,0-1.766-2.208c-.883-.883-1.325-1.325-2.208,0a2.815,2.815,0,0,0,0,2.65c0,1.767.883,2.65,1.325,3.533s1.325,1.767,1.766,2.65c-.442-1.767-.883-3.533,0-5.3C9.789,45.98,10.231,45.538,10.231,44.655Z" transform="translate(20.241 142.152)" fill="#3e3f61"/>
  <path id="Path_898" data-name="Path 898" d="M20.032,68.382a41.936,41.936,0,0,1-4.416-7.508c-.883-1.767-3.091-9.274-5.3-9.274-1.766,0-1.325,7.508-2.65,9.274C7.225,62.2,6.342,62.641,5.9,63.965a3.148,3.148,0,0,0,1.325,2.65c2.65,3.091,5.741,6.624,8.391,9.716.442.442.883.883,1.325.883a3.338,3.338,0,0,0,1.766-.442,3.435,3.435,0,0,1,3.533.883c1.325-1.325,1.325-3.533.883-5.3A15.522,15.522,0,0,1,20.032,68.382Z" transform="translate(20.156 176.278)" fill="#e36049"/>
</svg>
