<svg xmlns="http://www.w3.org/2000/svg" xmlns:xlink="http://www.w3.org/1999/xlink" viewBox="0 0 255.24 42.86"><defs><style>.cls-1{fill:url(#linear-gradient);}.cls-2{fill:none;}.cls-3{fill:url(#linear-gradient-2);}.cls-4{opacity:0.3;}.cls-5{fill:#333;}.cls-6{fill:url(#linear-gradient-3);}.cls-7{fill:#394285;}.cls-8{fill:#e36049;}</style><linearGradient id="linear-gradient" x1="39.17" y1="21.77" x2="28.6" y2="20.88" gradientUnits="userSpaceOnUse"><stop offset="0" stop-color="#ff8a75"/><stop offset="1" stop-color="#e36049"/></linearGradient><linearGradient id="linear-gradient-2" x1="12.36" y1="21.43" x2="-1.78" y2="21.43" gradientUnits="userSpaceOnUse"><stop offset="0" stop-color="#41d5ff"/><stop offset="1" stop-color="#0cb0d9"/></linearGradient><linearGradient id="linear-gradient-3" x1="10.72" y1="8.98" x2="44.96" y2="26.4" gradientUnits="userSpaceOnUse"><stop offset="0" stop-color="#282f6e"/><stop offset="1" stop-color="#394285"/></linearGradient></defs><title>logo</title><g id="Layer_2" data-name="Layer 2"><g id="Layer_1-2" data-name="Layer 1"><path class="cls-1" d="M37.88,9.65V23c0,.32,0,.63,0,.93l-.06.3c0,.2-.05.41-.09.6s-.07.23-.1.35a5,5,0,0,1-.14.52,3.65,3.65,0,0,1-.14.35c-.06.16-.11.32-.18.48l-.18.35c-.08.15-.15.3-.23.44a3.87,3.87,0,0,1-.21.34l-.27.41a4,4,0,0,1-.26.32c-.09.13-.19.25-.29.38s-.19.19-.29.29l-.33.35,0,0c-.13.13-.27.24-.41.36l-.22.18c-.24.18-.47.35-.72.51h0c-.25.15-.5.3-.75.43l-.28.13-.5.23h0c-.17.07-.34.12-.51.18s-.25.1-.38.13a5.54,5.54,0,0,1-.55.14l-.37.09q-.31.06-.63.09l-.32,0c-.32,0-.66.05-1,.05H18.22c.33,0,.66,0,1-.05l.32,0c.21,0,.43-.05.63-.09l.37-.09a5.54,5.54,0,0,0,.55-.14c.13,0,.26-.09.38-.13s.34-.11.51-.18.35-.16.53-.24.19-.08.27-.13c.27-.13.51-.28.76-.43h0c.24-.16.48-.33.71-.51l.22-.18.44-.38.33-.35c.1-.1.2-.19.29-.29l.3-.38a3.92,3.92,0,0,0,.25-.32c.1-.13.18-.27.27-.41a3.87,3.87,0,0,0,.21-.34,3.68,3.68,0,0,0,.23-.44l.18-.35c.07-.16.13-.32.19-.48s.09-.23.13-.35a5,5,0,0,0,.14-.52c0-.12.08-.23.1-.35s.06-.4.09-.6a1.45,1.45,0,0,0,.05-.3,7,7,0,0,0,.06-.93V9.65Z"/><path class="cls-2" d="M28.37,42.86H18.22A18.68,18.68,0,0,1,5.34,37.8,16.8,16.8,0,0,1,0,25.58H10.15A16.82,16.82,0,0,0,15.48,37.8,18.73,18.73,0,0,0,28.37,42.86Z"/><path class="cls-3" d="M15.48,37.8a16.82,16.82,0,0,1-5.33-12.22V0H0V25.58A16.8,16.8,0,0,0,5.34,37.8a18.68,18.68,0,0,0,12.88,5.06H28.37A18.73,18.73,0,0,1,15.48,37.8Z"/><g class="cls-4"><path class="cls-5" d="M30.07,9.65V23.7a8,8,0,0,1-.05,1c0,.12,0,.22-.05.33s-.06.42-.1.63-.08.25-.1.37l-.15.56c-.05.13-.11.25-.15.38s-.13.33-.2.5-.13.25-.19.37l-.24.47a3.17,3.17,0,0,1-.23.36c-.1.15-.19.3-.29.44s-.18.23-.27.34-.2.27-.31.4-.21.21-.31.31a4.21,4.21,0,0,1-.36.37,4.49,4.49,0,0,1-.46.41l-.24.19c-.24.19-.5.38-.76.55h0c-.19.13-.38.24-.58.35H18.22c.33,0,.66,0,1-.05l.32,0c.21,0,.43-.05.63-.09l.37-.09a5.54,5.54,0,0,0,.55-.14c.13,0,.26-.09.38-.13s.34-.11.51-.18.35-.16.53-.24.19-.08.27-.13c.27-.13.51-.28.76-.43h0c.24-.16.48-.33.71-.51l.22-.18.44-.38.33-.35c.1-.1.2-.19.29-.29l.3-.38a3.92,3.92,0,0,0,.25-.32c.1-.13.18-.27.27-.41a3.87,3.87,0,0,0,.21-.34,3.68,3.68,0,0,0,.23-.44l.18-.35c.07-.16.13-.32.19-.48s.09-.23.13-.35a5,5,0,0,0,.14-.52c0-.12.08-.23.1-.35s.06-.4.09-.6a1.45,1.45,0,0,0,.05-.3,7,7,0,0,0,.06-.93V9.65Z"/></g><path class="cls-6" d="M10.15,0H46.6V25.58c0,9.54-8.16,17.28-18.23,17.28A18.73,18.73,0,0,1,15.48,37.8a16.82,16.82,0,0,1-5.33-12.22ZM37.88,23V9.65h-19V23a8.78,8.78,0,0,0,2.79,6.38A9.73,9.73,0,0,0,28.37,32a9.27,9.27,0,0,0,9.51-9"/><path class="cls-7" d="M71.22,25.18H65.71L64.85,28H60l6.23-17.19h4.4L76.89,28H72.08ZM70,21.32l-1.54-4.94h0L66.9,21.32Z"/><path class="cls-7" d="M86.86,16.07a4.83,4.83,0,0,1,1.26.58,5.49,5.49,0,0,1,1.06.93,6,6,0,0,1,.8,1.23,6.17,6.17,0,0,1,.52,1.5A7.43,7.43,0,0,1,90.69,22a7.12,7.12,0,0,1-.7,3.22A5.11,5.11,0,0,1,88,27.43a5.28,5.28,0,0,1-2.86.77,3.73,3.73,0,0,1-2.94-1.27h0v5.81H77.9V16.11h4.33V17.3h0a4,4,0,0,1,3.17-1.44A4.83,4.83,0,0,1,86.86,16.07Zm-1.12,7.7a2.8,2.8,0,0,0,0-3.44,1.93,1.93,0,0,0-1.51-.66,2,2,0,0,0-1.57.66,2.7,2.7,0,0,0,0,3.44,2,2,0,0,0,1.57.66A1.93,1.93,0,0,0,85.74,23.77Z"/><path class="cls-7" d="M101.26,16.07a4.83,4.83,0,0,1,1.26.58,5.49,5.49,0,0,1,1.06.93,6,6,0,0,1,.8,1.23,6.17,6.17,0,0,1,.52,1.5,7.43,7.43,0,0,1,.19,1.72,7.26,7.26,0,0,1-.7,3.22,5.11,5.11,0,0,1-2,2.18,5.28,5.28,0,0,1-2.86.77,3.73,3.73,0,0,1-2.94-1.27h0v5.81H92.3V16.11h4.33V17.3h0a4,4,0,0,1,3.17-1.44A4.83,4.83,0,0,1,101.26,16.07Zm-1.12,7.7a2.8,2.8,0,0,0,0-3.44,2,2,0,0,0-1.51-.66,2,2,0,0,0-1.57.66,2.7,2.7,0,0,0,0,3.44,2,2,0,0,0,1.57.66A2,2,0,0,0,100.14,23.77Z"/><path class="cls-8" d="M106.91,10.77h6.68a8.21,8.21,0,0,1,2.3.3,5.38,5.38,0,0,1,1.77.84,5,5,0,0,1,1.22,1.3,5.5,5.5,0,0,1,.73,1.68,8.3,8.3,0,0,1,.23,2,6.1,6.1,0,0,1-.81,3.23,4.93,4.93,0,0,1-2.27,2,8.47,8.47,0,0,1-3.45.64h-1.94V28h-4.46Zm5.66,8a3,3,0,0,0,1.81-.5,1.73,1.73,0,0,0,.68-1.46,1.79,1.79,0,0,0-.65-1.4,2.72,2.72,0,0,0-1.83-.56h-1.21v3.92Z"/><path class="cls-8" d="M129,15.86v4.62l-.9,0a2.49,2.49,0,0,0-1.84.63,2.31,2.31,0,0,0-.62,1.69V28H121.3V16.11h4.32v1.62h0a4.46,4.46,0,0,1,1.49-1.39,3.67,3.67,0,0,1,1.82-.48Z"/><path class="cls-8" d="M130.79,14.1a2.35,2.35,0,0,1-.39-2.84,2.23,2.23,0,0,1,.89-.83,2.72,2.72,0,0,1,1.28-.31,2.48,2.48,0,0,1,1.78.66,2.15,2.15,0,0,1,.7,1.65,2.19,2.19,0,0,1-.7,1.67,2.73,2.73,0,0,1-3.56,0Zm-.38,2h4.31V28h-4.31Z"/><path class="cls-8" d="M148.93,16.11,144.41,28h-3.89L136,16.11h4.48l2,6.72h.05l1.92-6.72Z"/><path class="cls-8" d="M161.46,16.11V28h-4.1V26.85h0a3.63,3.63,0,0,1-3,1.35,5.45,5.45,0,0,1-2.23-.45,5,5,0,0,1-1.74-1.26,5.66,5.66,0,0,1-1.13-1.95,7.55,7.55,0,0,1-.41-2.51,7.74,7.74,0,0,1,.4-2.49,5.74,5.74,0,0,1,1.11-2A4.92,4.92,0,0,1,152,16.32a4.71,4.71,0,0,1,2.07-.46,3.91,3.91,0,0,1,3.07,1.42h0V16.11Zm-4.74,7.65a2.49,2.49,0,0,0,.59-1.72,2.52,2.52,0,0,0-.59-1.71,2,2,0,0,0-3,0,2.8,2.8,0,0,0,0,3.44,2,2,0,0,0,3,0Z"/><path class="cls-8" d="M166.05,27.43a5.61,5.61,0,0,1-2.22-2.18A6.33,6.33,0,0,1,163,22a6.18,6.18,0,0,1,.82-3.21,5.71,5.71,0,0,1,2.3-2.19,7.17,7.17,0,0,1,3.38-.78,7,7,0,0,1,2.91.63,5.78,5.78,0,0,1,2.26,1.82l-2.87,2.44a2.77,2.77,0,0,0-2.2-1.06,2.15,2.15,0,0,0-1.63.65,2.28,2.28,0,0,0-.62,1.66,2.32,2.32,0,0,0,.64,1.7,2.19,2.19,0,0,0,1.66.67,2.74,2.74,0,0,0,2.14-1L174.75,26a5.79,5.79,0,0,1-2.24,1.62,8,8,0,0,1-3.28.62A6.51,6.51,0,0,1,166.05,27.43Z"/><path class="cls-8" d="M187.86,16.11l-6.08,16.63h-4.19l2-5.66-4.53-11h4.45l2,5.61h0l1.89-5.61Z"/><path class="cls-8" d="M189.22,10.77h6.69a8.14,8.14,0,0,1,2.29.3,5.38,5.38,0,0,1,1.77.84,4.91,4.91,0,0,1,1.23,1.3,5.47,5.47,0,0,1,.72,1.68,7.82,7.82,0,0,1,.23,2,6.1,6.1,0,0,1-.81,3.23,4.88,4.88,0,0,1-2.27,2,8.47,8.47,0,0,1-3.45.64h-1.93V28h-4.47Zm5.66,8a3,3,0,0,0,1.81-.5,1.73,1.73,0,0,0,.68-1.46,1.78,1.78,0,0,0-.64-1.4,2.73,2.73,0,0,0-1.84-.56h-1.2v3.92Z"/><path class="cls-8" d="M206.12,27.43a5.5,5.5,0,0,1-2.3-2.18A6.23,6.23,0,0,1,203,22a6.18,6.18,0,0,1,.82-3.21,5.59,5.59,0,0,1,2.3-2.19,7.67,7.67,0,0,1,6.74,0,5.71,5.71,0,0,1,2.3,2.19,6.62,6.62,0,0,1,0,6.42,5.62,5.62,0,0,1-2.3,2.18,7.76,7.76,0,0,1-6.74,0ZM211,23.72a2.36,2.36,0,0,0,.61-1.68,2.39,2.39,0,0,0-.6-1.69,2,2,0,0,0-1.55-.66,2.07,2.07,0,0,0-.86.18,2,2,0,0,0-.69.48,2.22,2.22,0,0,0-.44.75,2.61,2.61,0,0,0-.16.94,2.81,2.81,0,0,0,.11.77,2.28,2.28,0,0,0,.3.65,2.2,2.2,0,0,0,1.05.82,2.26,2.26,0,0,0,.69.11A2,2,0,0,0,211,23.72Z"/><path class="cls-8" d="M217.7,10.15H222V28H217.7Z"/><path class="cls-8" d="M224.74,14.1a2.35,2.35,0,0,1-.39-2.84,2.23,2.23,0,0,1,.89-.83,2.72,2.72,0,0,1,1.28-.31,2.48,2.48,0,0,1,1.78.66,2.15,2.15,0,0,1,.7,1.65,2.19,2.19,0,0,1-.7,1.67,2.73,2.73,0,0,1-3.56,0Zm-.38,2h4.31V28h-4.31Z"/><path class="cls-8" d="M233.44,27.43a5.57,5.57,0,0,1-2.23-2.18,6.73,6.73,0,0,1,0-6.42,5.67,5.67,0,0,1,2.31-2.19,7.1,7.1,0,0,1,3.37-.78,7,7,0,0,1,2.91.63,5.78,5.78,0,0,1,2.26,1.82l-2.87,2.44a2.77,2.77,0,0,0-2.2-1.06,2.16,2.16,0,0,0-1.63.65,2.56,2.56,0,0,0,0,3.36,2.19,2.19,0,0,0,1.66.67,2.72,2.72,0,0,0,2.14-1L242.13,26a5.72,5.72,0,0,1-2.24,1.62,8,8,0,0,1-3.28.62A6.44,6.44,0,0,1,233.44,27.43Z"/><path class="cls-8" d="M255.24,16.11l-6.08,16.63H245l2-5.66-4.54-11h4.45l2,5.61h0l1.89-5.61Z"/></g></g></svg>